<?xml version="1.0" encoding="utf-8"?>
<!-- Generator: Adobe Illustrator 18.1.1, SVG Export Plug-In . SVG Version: 6.00 Build 0)  -->
<!DOCTYPE svg PUBLIC "-//W3C//DTD SVG 1.1//EN" "http://www.w3.org/Graphics/SVG/1.1/DTD/svg11.dtd">
<svg version="1.1" xmlns="http://www.w3.org/2000/svg" xmlns:xlink="http://www.w3.org/1999/xlink" x="0px" y="0px" width="1000px"
	 height="1000px" viewBox="0 0 1000 1000" enable-background="new 0 0 1000 1000" xml:space="preserve">
<g id="Layer_2" display="none">
	<rect display="inline" fill-rule="evenodd" clip-rule="evenodd" fill="#565656" width="1000.3" height="594.9"/>
</g>
<g id="Layer_1">
	<g>
		<circle fill="#FAA919" cx="14.9" cy="54.9" r="14.9"/>
		<path fill="#FFC10D" d="M25.5,49.4l-16.4,16c1.4,0.8,3.1,1.3,4.8,1.4l13-12.6C26.8,52.5,26.3,50.8,25.5,49.4z"/>
		<path fill="#FFC10D" d="M16.8,43L3,56.5c0.4,2.7,1.7,5.2,3.6,7l17.2-16.7C22,44.8,19.6,43.5,16.8,43z"/>
	</g>
	<g>
		<path fill="#FF6C00" d="M41.6,68.9c-5.7,0-10.4-4.7-10.4-10.4c0-3.1,1.3-5.9,3.7-7.9c0.2-0.1,0.7-0.6,0.6-1.1c0-0.4,0.2-0.8,0.6-1
			c0.1-0.1,0.3-0.1,0.4-0.1c0.3,0,0.5,0.1,0.7,0.3c0.2,0.2,0.7,0.7,0.7,2.1c0,0.2,0,0.5-0.1,0.7c-0.1,0.4-0.1,0.7-0.3,1.2
			c-0.1,0.2-0.1,0.3-0.2,0.5c-0.1,0.2-0.1,0.3-0.2,0.5c0,0.2-0.1,0.4,0,0.6c0,0.2,0.2,0.4,0.4,0.7c0.2,0.2,0.5,0.3,0.8,0.3
			c0.1,0,0.3,0,0.4-0.1c1-0.3,0.9-1.8,0.7-2.6c-0.1-0.5-0.3-1-0.5-1.6c-0.3-0.8-0.6-1.7-0.6-2.7c0-0.6,0.1-1.2,0.2-1.8
			c0.2-0.8,0.5-1.6,1-2.3c0.3-0.5,0.7-0.9,1-1.2l0.3-0.3c0.2-0.2,0.5-0.4,0.8-0.5c0.1,0,0.1,0,0.2,0c0.2,0,0.5,0.1,0.6,0.2
			c0.2,0.2,0.4,0.5,0.4,0.8c0,0.1,0,0.3-0.1,0.4c-0.5,1.7,1.1,3.2,2.3,4.1c2.6,1.8,4.1,3.8,5,5c1.2,1.7,1.8,3.7,1.8,5.8
			C52,64.2,47.3,68.9,41.6,68.9z"/>
		<path fill="#FFFFFF" d="M42,43c0,0,0,0.1,0,0.2c-0.8,2.6,1.8,4.6,2.7,5.2c2.5,1.8,3.9,3.6,4.7,4.8c1.1,1.6,1.6,3.4,1.6,5.3
			c0,5.2-4.2,9.4-9.4,9.4c-5.2,0-9.4-4.2-9.4-9.4c0-2.8,1.2-5.4,3.3-7.2c0.4-0.3,1-1,1-1.9c0,0,0,0,0.1,0c0,0,0.4,0.3,0.4,1.3
			c0,0.2,0,0.4,0,0.6c0,0.3-0.1,0.6-0.2,1c0,0.2-0.1,0.3-0.2,0.4c-0.1,0.2-0.2,0.4-0.2,0.6c-0.1,0.3-0.1,0.6-0.1,0.9
			c0.1,0.5,0.3,0.9,0.8,1.3c0.4,0.3,0.9,0.5,1.4,0.5c0.2,0,0.5,0,0.8-0.1c0.7-0.2,1.8-1.1,1.4-3.7c-0.1-0.6-0.3-1.2-0.5-1.8
			c-0.3-0.8-0.5-1.5-0.5-2.4c0-0.5,0.1-1.1,0.2-1.6c0.2-0.7,0.5-1.4,0.9-2c0.3-0.4,0.6-0.8,0.9-1.1c0.1-0.1,0.2-0.2,0.3-0.3
			C41.8,43.1,41.9,43,42,43 M42,41c-0.1,0-0.3,0-0.4,0c-0.5,0.1-0.9,0.4-1.3,0.8L40,42.1c-0.4,0.4-0.8,0.8-1.1,1.4
			c-0.5,0.8-0.9,1.7-1.1,2.7c-0.1,0.5-0.2,1-0.2,1.6c-0.3-0.2-0.7-0.3-1-0.3c-0.3,0-0.6,0.1-0.8,0.2c-0.7,0.3-1.2,1.1-1.2,1.8
			c0,0.1-0.1,0.2-0.3,0.3c-2.6,2.2-4,5.3-4,8.7c0,6.3,5.1,11.4,11.4,11.4c6.3,0,11.4-5.1,11.4-11.4c0-2.3-0.7-4.5-1.9-6.4
			c-0.9-1.3-2.5-3.3-5.2-5.3c-1.6-1.2-2.2-2.2-1.9-3.1c0.1-0.2,0.1-0.4,0.1-0.7c0-0.6-0.2-1.2-0.7-1.6C42.9,41.2,42.5,41,42,41
			L42,41z M38.2,54c0-0.1,0-0.1,0-0.1c0-0.1,0.1-0.2,0.1-0.3c0.1-0.2,0.2-0.4,0.2-0.6c0,0,0-0.1,0-0.1c0.1,0.9,0,1.2-0.1,1.3
			c0,0-0.1,0-0.1,0c-0.1,0-0.1,0-0.1,0C38.2,54.1,38.2,54.1,38.2,54L38.2,54z"/>
	</g>
	<g>
		<path fill="#FF6C00" d="M367.1,49.4c0.1-0.1,0.1-0.3,0.2-0.4c0.1-0.3,0.2-0.7,0.2-1c0-0.2,0-0.4,0-0.6c0-0.9-0.3-1.2-0.4-1.2
			c0,0,0,0-0.1,0c0,0.8-0.6,1.5-0.9,1.8c-2,1.7-3.2,4.2-3.2,6.8c0,5,4,9,9,9c5,0,9-4,9-9c0-1.8-0.5-3.5-1.5-5
			c-0.8-1.2-2.2-2.9-4.5-4.6c-0.8-0.6-3.3-2.5-2.6-5c0-0.1,0-0.1,0-0.2c-0.1,0-0.2,0.1-0.2,0.2c-0.1,0.1-0.2,0.2-0.3,0.3
			c-0.3,0.3-0.6,0.7-0.9,1.1c-0.4,0.6-0.7,1.2-0.8,1.9c-0.1,0.5-0.2,1-0.2,1.5c0,0.8,0.2,1.5,0.5,2.3c0.2,0.6,0.4,1.1,0.5,1.7
			c0.4,2.5-0.6,3.3-1.3,3.5c-0.2,0.1-0.5,0.1-0.7,0.1c-0.5,0-1-0.2-1.4-0.5c-0.4-0.4-0.7-0.8-0.7-1.2c0-0.3,0-0.6,0.1-0.9
			C367,49.7,367,49.6,367.1,49.4z"/>
	</g>
	<g>
		<path fill="#FFA200" d="M646.5,68.1c-5.6,0-10.2-4.6-10.2-10.2c0-3,1.3-5.8,3.6-7.8c0.3-0.3,0.5-0.6,0.5-0.8c0-0.5,0.3-1,0.7-1.2
			c0.2-0.1,0.3-0.1,0.5-0.1c0.3,0,0.6,0.1,0.9,0.3c0.2,0.2,0.8,0.8,0.8,2.2c0,0.2,0,0.5-0.1,0.7c0,0.4-0.1,0.7-0.3,1.1
			c-0.1,0.2-0.1,0.4-0.2,0.5c-0.1,0.1-0.1,0.3-0.2,0.4c0,0.1,0,0.3,0,0.4c0,0.2,0.2,0.4,0.3,0.4c0.1,0.1,0.3,0.2,0.5,0.2
			c0.1,0,0.2,0,0.3-0.1c0.7-0.2,0.6-1.4,0.5-2.1c-0.1-0.5-0.2-1-0.4-1.5c-0.3-0.8-0.6-1.7-0.6-2.6c0-0.6,0.1-1.2,0.2-1.8
			c0.2-0.8,0.5-1.6,1-2.3c0.3-0.5,0.7-0.9,1-1.2l0.3-0.3c0.3-0.3,0.6-0.5,0.9-0.5c0.1,0,0.2,0,0.3,0c0.3,0,0.6,0.1,0.8,0.3
			c0.3,0.2,0.5,0.6,0.5,1c0,0.2,0,0.3-0.1,0.5c-0.4,1.5,1,2.8,2.1,3.6c2.5,1.8,4,3.6,4.8,4.9c1.1,1.7,1.7,3.6,1.7,5.7
			C656.7,63.5,652.1,68.1,646.5,68.1z"/>
		<path fill="#FFFFFF" d="M646.9,43.1c0,0,0,0.1,0,0.2c-0.7,2.5,1.7,4.3,2.5,5c2.3,1.7,3.7,3.4,4.5,4.6c1,1.5,1.5,3.2,1.5,5
			c0,4.9-4,9-9,9c-4.9,0-9-4-9-9c0-2.6,1.1-5.1,3.2-6.8c0.4-0.3,1-1,0.9-1.8c0,0,0,0,0.1,0c0,0,0.4,0.3,0.4,1.2c0,0.2,0,0.4,0,0.6
			c0,0.3-0.1,0.6-0.2,1c0,0.1-0.1,0.3-0.2,0.4c-0.1,0.2-0.1,0.4-0.2,0.6c-0.1,0.3-0.1,0.6,0,0.9c0.1,0.4,0.3,0.9,0.7,1.2
			c0.4,0.3,0.8,0.5,1.3,0.5c0.2,0,0.5,0,0.7-0.1c0.7-0.2,1.7-1,1.3-3.5c-0.1-0.6-0.3-1.1-0.5-1.7c-0.3-0.8-0.5-1.5-0.5-2.2
			c0-0.5,0.1-1,0.2-1.5c0.2-0.7,0.4-1.3,0.8-1.9c0.3-0.4,0.6-0.7,0.9-1.1c0.1-0.1,0.2-0.2,0.3-0.3C646.7,43.2,646.8,43.1,646.9,43.1
			 M646.9,40.6c-0.2,0-0.4,0-0.5,0.1c-0.6,0.1-1.1,0.4-1.6,0.9l-0.3,0.3c-0.4,0.4-0.8,0.8-1.1,1.4c-0.5,0.8-0.9,1.7-1.2,2.7
			c-0.1,0.3-0.1,0.5-0.1,0.8c-0.2,0-0.3,0-0.5,0c-0.4,0-0.7,0.1-1.1,0.2c-0.8,0.4-1.4,1.2-1.4,2.1c0,0,0,0-0.1,0.1
			c-2.6,2.2-4,5.4-4,8.7c0,6.3,5.1,11.5,11.5,11.5c6.3,0,11.5-5.1,11.5-11.5c0-2.3-0.7-4.5-2-6.4c-0.9-1.3-2.5-3.3-5.1-5.2
			c-1.5-1.2-1.7-1.9-1.6-2.3c0.1-0.3,0.1-0.5,0.1-0.8c0-0.8-0.3-1.5-0.9-2C648.1,40.8,647.5,40.6,646.9,40.6L646.9,40.6z"/>
	</g>
	<g>
		<path fill="#E3E3E3" d="M671.1,68.1c-5.6,0-10.2-4.6-10.2-10.2c0-3,1.3-5.8,3.6-7.8c0.3-0.3,0.5-0.6,0.5-0.8c0-0.5,0.3-1,0.7-1.2
			c0.2-0.1,0.3-0.1,0.5-0.1c0.3,0,0.6,0.1,0.9,0.3c0.2,0.2,0.8,0.8,0.8,2.2c0,0.2,0,0.5-0.1,0.7c0,0.4-0.1,0.7-0.2,1.1
			c-0.1,0.2-0.1,0.4-0.2,0.5c-0.1,0.1-0.1,0.3-0.2,0.4c0,0.1,0,0.3,0,0.4c0,0.2,0.2,0.4,0.3,0.5c0.1,0.1,0.3,0.2,0.5,0.2
			c0.1,0,0.2,0,0.3-0.1c0.7-0.2,0.6-1.4,0.5-2.1c-0.1-0.5-0.2-1-0.4-1.5c-0.3-0.8-0.6-1.7-0.6-2.6c0-0.6,0.1-1.2,0.2-1.8
			c0.2-0.8,0.5-1.6,1-2.3c0.3-0.5,0.7-0.9,1-1.2l0.3-0.3c0.2-0.3,0.6-0.5,0.9-0.5c0.1,0,0.2,0,0.3,0c0.3,0,0.6,0.1,0.8,0.3
			c0.3,0.3,0.5,0.6,0.4,1c0,0.2,0,0.3-0.1,0.5c-0.4,1.4,1,2.8,2.1,3.6c2.5,1.8,4,3.6,4.8,4.9c1.1,1.7,1.7,3.6,1.7,5.7
			C681.3,63.5,676.7,68.1,671.1,68.1z"/>
		<path fill="#FFFFFF" d="M671.5,43.1c0,0,0,0.1,0,0.2c-0.7,2.5,1.7,4.3,2.5,5c2.3,1.7,3.7,3.4,4.5,4.6c1,1.5,1.5,3.2,1.5,5
			c0,4.9-4,9-9,9c-4.9,0-9-4-9-9c0-2.6,1.1-5.1,3.2-6.8c0.4-0.3,1-1,0.9-1.8c0,0,0,0,0.1,0c0,0,0.4,0.3,0.4,1.2c0,0.2,0,0.4,0,0.6
			c0,0.3-0.1,0.6-0.2,1c0,0.1-0.1,0.3-0.2,0.4c-0.1,0.2-0.1,0.4-0.2,0.6c-0.1,0.3-0.1,0.6,0,0.9c0.1,0.4,0.3,0.9,0.7,1.2
			c0.4,0.3,0.8,0.5,1.3,0.5c0.2,0,0.5,0,0.7-0.1c0.7-0.2,1.7-1,1.3-3.5c-0.1-0.6-0.3-1.1-0.5-1.7c-0.3-0.8-0.5-1.5-0.5-2.2
			c0-0.5,0.1-1,0.2-1.5c0.2-0.7,0.4-1.3,0.8-1.9c0.3-0.4,0.6-0.7,0.9-1.1c0.1-0.1,0.2-0.2,0.3-0.3C671.4,43.2,671.5,43.1,671.5,43.1
			 M671.5,40.6c-0.2,0-0.4,0-0.5,0.1c-0.6,0.1-1.1,0.4-1.6,0.9l-0.3,0.3c-0.4,0.4-0.8,0.8-1.1,1.4c-0.5,0.8-0.9,1.7-1.2,2.7
			c-0.1,0.3-0.1,0.5-0.1,0.8c-0.2,0-0.3,0-0.5,0c-0.4,0-0.7,0.1-1.1,0.2c-0.8,0.4-1.4,1.2-1.4,2.1c0,0,0,0-0.1,0.1
			c-2.6,2.2-4,5.4-4,8.7c0,6.3,5.1,11.5,11.5,11.5c6.3,0,11.5-5.1,11.5-11.5c0-2.3-0.7-4.5-2-6.4c-0.9-1.3-2.5-3.3-5.1-5.2
			c-1.5-1.2-1.7-1.9-1.6-2.3c0.1-0.3,0.1-0.5,0.1-0.8c0-0.8-0.3-1.5-0.9-2C672.7,40.8,672.1,40.6,671.5,40.6L671.5,40.6z"/>
	</g>
	<g>
		<polygon fill="#D33131" points="54.1,63.1 54.1,47.9 63.6,42.4 73.1,47.9 73.1,63.1 63.6,68.6 		"/>
		<g>
			<path fill="#FFFFFF" d="M63.6,43.6l8.5,4.9v14.1l-8.5,4.9l-8.5-4.9V48.5L63.6,43.6 M63.6,41.3l-1,0.6l-8.5,4.9l-1,0.6v1.1v14.1
				v1.1l1,0.6l8.5,4.9l1,0.6l1-0.6l8.5-4.9l1-0.6v-1.1V48.5v-1.1l-1-0.6l-8.5-4.9L63.6,41.3L63.6,41.3z"/>
		</g>
	</g>
	<polygon fill="#F93D3D" points="63.6,43.6 63.6,43.6 55.2,48.5 58.7,51.4 63.6,49.8 	"/>
	<polygon fill="#AF2828" points="63.6,67.4 63.6,67.4 72.1,62.5 68.6,59.6 63.6,61.2 	"/>
	<polygon fill="#E83838" points="63.6,48.6 68.5,51.4 68.5,59.6 63.6,62.4 58.7,59.6 58.7,51.4 	"/>
	<g>
		<path fill="#FFFFFF" d="M59.3,53.7C59.3,53.7,59.2,53.7,59.3,53.7c-0.5-1.2-1.4-2.1-2.5-2.5c0,0,0,0,0-0.1s0-0.1,0-0.1
			c1.1-0.5,2-1.4,2.4-2.5c0,0,0,0,0.1,0l0,0c0,0,0.1,0,0.1,0c0.4,1.1,1.3,2,2.4,2.5c0,0,0,0,0,0.1s0,0.1,0,0.1
			C60.7,51.7,59.8,52.6,59.3,53.7C59.3,53.7,59.3,53.7,59.3,53.7z"/>
		<path fill="#FFFFFF" d="M59.3,48.6c0.5,1.1,1.3,2,2.5,2.5c-1.1,0.5-2,1.4-2.5,2.5c-0.5-1.1-1.3-2-2.5-2.5
			C57.9,50.7,58.8,49.7,59.3,48.6 M59.3,48.5c-0.1,0-0.1,0-0.1,0.1c-0.4,1.1-1.3,2-2.4,2.4c-0.1,0-0.1,0.1-0.1,0.1s0,0.1,0.1,0.1
			c1.1,0.5,2,1.3,2.4,2.4c0,0.1,0.1,0.1,0.1,0.1s0.1,0,0.1-0.1c0.4-1.1,1.3-2,2.4-2.4c0.1,0,0.1-0.1,0.1-0.1s0-0.1-0.1-0.1
			c-1.1-0.5-2-1.3-2.4-2.4C59.4,48.5,59.3,48.5,59.3,48.5L59.3,48.5z"/>
	</g>
	<polygon opacity="0.3" fill="#F77F7F" points="65.5,49.7 58.7,56.5 58.7,59.6 59.5,60.1 68.3,51.3 	"/>
	<polygon opacity="0.3" fill="#F77F7F" points="61.9,61.4 68.5,54.8 68.5,52.7 60.5,60.7 	"/>
	<g>
		<g>
			<polygon fill="#D33131" points="106.6,140 132.9,155.2 132.9,199 106.6,214.2 80.2,199 80.2,155.2 			"/>
		</g>
		<polygon fill="#F93D3D" points="106.6,140 106.6,140 80.3,155.2 91.3,164.4 106.6,159.4 		"/>
		<polygon fill="#AF2828" points="106.6,214.1 106.6,214.1 132.9,198.9 121.9,189.7 106.6,194.7 		"/>
		<polygon fill="#E83838" points="106.6,155.6 121.9,164.4 121.9,189.8 106.6,198.6 91.3,189.8 91.3,164.4 		"/>
		<g>
			<path fill="#FFFFFF" d="M93.1,169.8c-0.1,0-0.1,0-0.2-0.1c-1.1-2.7-3.3-4.9-5.9-6c-0.1,0-0.1-0.1-0.1-0.2s0-0.1,0.1-0.2
				c2.7-1.1,4.9-3.3,5.9-6c0-0.1,0.1-0.1,0.2-0.1l0,0c0.1,0,0.1,0,0.2,0.1c1.1,2.7,3.2,4.9,5.9,6c0.1,0,0.1,0.1,0.1,0.2
				s0,0.1-0.1,0.2c-2.7,1.1-4.9,3.3-5.9,6C93.2,169.8,93.2,169.8,93.1,169.8z"/>
			<path fill="#FFFFFF" d="M93.1,157.3c1.1,2.8,3.3,5,6,6.1c-2.7,1.2-4.9,3.4-6,6.1c-1.1-2.8-3.3-5-6-6.1
				C89.8,162.3,92,160.1,93.1,157.3 M93.1,157c-0.1,0-0.3,0.1-0.3,0.2c-1.1,2.7-3.2,4.8-5.8,5.9c-0.1,0.1-0.2,0.2-0.2,0.3
				s0.1,0.3,0.2,0.3c2.6,1.1,4.8,3.3,5.8,5.9c0.1,0.1,0.2,0.2,0.3,0.2c0.1,0,0.3-0.1,0.3-0.2c1.1-2.7,3.2-4.8,5.8-5.9
				c0.1-0.1,0.2-0.2,0.2-0.3s-0.1-0.3-0.2-0.3c-2.6-1.1-4.8-3.3-5.8-5.9C93.4,157.1,93.3,157,93.1,157L93.1,157z"/>
		</g>
		<polygon opacity="0.3" fill="#F77F7F" points="112.4,159 91.3,180.1 91.3,189.8 93.9,191.2 121.1,164 		"/>
		<polygon opacity="0.3" fill="#F77F7F" points="101.3,195.5 121.9,175 121.9,168.2 97,193.1 		"/>
	</g>
	<rect x="37.5" y="52.6" fill="#FFFFFF" width="2" height="2.4"/>
	<g>
		<path fill="#E02804" d="M87.2,60c-0.1,0-0.2,0-0.3-0.1c-0.1,0-0.2-0.1-0.3-0.1c-5.4-3.9-8-6.1-9.6-7.9c-1.7-2-2.1-3.6-2.1-5.7
			c0,0,0,0,0-0.1c0-3.5,3-6.3,6.8-6.3c2.2,0,4.2,1,5.5,2.6c1.3-1.6,3.3-2.6,5.5-2.6c3.7,0,6.8,2.8,6.8,6.3c0,0,0,0,0,0.1
			c0,2.1-0.4,3.6-2.1,5.7c-1.5,1.8-4.1,3.9-9.6,7.9c-0.1,0.1-0.1,0.1-0.2,0.1C87.5,60,87.4,60,87.2,60z"/>
	</g>
	<g>
		<path fill="#E3E3E3" d="M138.5,60c-0.1,0-0.2,0-0.3-0.1c-0.1,0-0.2-0.1-0.3-0.1c-5.6-3.9-8.2-6.1-9.8-7.9c-1.8-2-2.1-3.6-2.1-5.7
			c0,0,0,0,0-0.1c0-3.5,3.1-6.3,6.9-6.3c2.2,0,4.3,1,5.6,2.6c1.3-1.6,3.4-2.6,5.6-2.6c3.8,0,6.9,2.8,6.9,6.3c0,0,0,0,0,0.1
			c0,2.1-0.4,3.6-2.1,5.7c-1.6,1.8-4.2,3.9-9.8,7.9c-0.1,0.1-0.1,0.1-0.2,0.1C138.7,60,138.6,60,138.5,60z"/>
	</g>
	<g>
		<path fill="#E3E3E3" d="M138.2,60c-0.1,0-0.2,0-0.3-0.1c-0.1,0-0.2-0.1-0.3-0.1c-5.4-3.9-8-6.1-9.6-7.9c-1.7-2-2.1-3.6-2.1-5.7
			c0,0,0,0,0-0.1c0-3.5,3-6.3,6.8-6.3c2.2,0,4.2,1,5.5,2.6c1.3-1.6,3.3-2.6,5.5-2.6c3.7,0,6.8,2.8,6.8,6.3c0,0,0,0,0,0.1
			c0,2.1-0.4,3.6-2.1,5.7c-1.5,1.8-4.1,3.9-9.6,7.9c-0.1,0.1-0.1,0.1-0.2,0.1C138.5,60,138.4,60,138.2,60z"/>
	</g>
	<g>
		<path fill="#EC0000" d="M409.1,62.4c-0.1,0-0.2,0-0.3,0c-0.1,0-0.2-0.1-0.2-0.1c-4.7-3.4-7-5.2-8.3-6.7c-1.5-1.7-1.8-3.1-1.8-4.9
			c0,0,0,0,0-0.1c0-3,2.6-5.4,5.9-5.4c1.9,0,3.7,0.9,4.8,2.2c1.1-1.4,2.9-2.2,4.8-2.2c3.2,0,5.9,2.4,5.9,5.4c0,0,0,0,0,0.1
			c0,1.8-0.3,3.1-1.8,4.9c-1.3,1.5-3.6,3.4-8.4,6.7c-0.1,0-0.1,0.1-0.2,0.1C409.3,62.4,409.2,62.4,409.1,62.4z"/>
	</g>
	<g>
		<path fill="#353535" d="M115.1,52.9c0.3-0.3,0.9-0.4,1.2-0.1l7.6-7.6c0.8-0.8,0.8-2,0-2.8l-1.2-1.2c-0.8-0.8-2-0.8-2.8,0l-7.4,7.4
			c0.2,0.4,0.2,0.8-0.1,1.1c-0.3,0.3-0.8,0.4-1.1,0.1l-0.9,0.9c-0.7,0.7-0.8,1.9-0.1,2.7l-6,6l-0.7-0.7l-2.8,3.7l1.7,1.7l3.7-2.8
			l-0.8-0.8l6-6l0.2,0.2c0.8,0.8,2,0.8,2.8,0l0.6-0.6C114.8,53.7,114.8,53.2,115.1,52.9z"/>
		<path fill="#353535" d="M117.6,53.9l-2.8,2.8l6.5,7l3.4-3.2L117.6,53.9z M121.4,61.6c-0.7,0-1.2-0.6-1.2-1.2
			c0-0.7,0.6-1.2,1.2-1.2s1.2,0.6,1.2,1.2C122.7,61.1,122.1,61.6,121.4,61.6z"/>
		<polygon fill="#353535" points="107,51.4 112.1,46.2 109.8,41.2 106.1,40 105.5,41.4 107.6,43.4 107.9,45.1 106.1,46.9 
			104.3,46.7 102.5,44.4 101.2,44.8 102,49 		"/>
	</g>
	<path fill="#FFFFFF" d="M182.9,45.4c-3.9,0-3.3,4.8-6.2,4.5c-1.8-4.6-6.4-7-10.4-7c-5.1,0-9.7,4.4-10.5,9.3c-1.5-0.3-2-1.8-2.7-1.8
		c-1.5,0,0.3,3.9,4.1,6.7c0.3,0.3,0.6,0.5,1,0.7c-0.3,1.1-0.9,2-1,3.1c-0.1,1.4,0.4,1.9,1.4,2c1,0.1,2.2-0.4,2.3-3.1
		c0-0.3,0.1-0.5,0.1-0.8c2.3,0.7,4.6,0.9,5.1,0.9c0.5,0,2.9,0.1,5.4-0.4c0.1,0.8,0,1.7,0.4,2.4c0.5,1.3,1.2,1.5,2.2,1.1
		c0.9-0.4,1.8-1.3,0.7-3.8c-0.1-0.3-0.2-0.5-0.3-0.7c1.8-0.9,3.1-2.3,3.1-4.5c0-0.8-0.1-1.6-0.2-2.3c1.3,0.3,2,1.4,4.9,1.4
		c3.2,0,4.4-2.2,4.6-3.6C186.8,48.5,186.9,45.4,182.9,45.4z"/>
	<path fill="none" stroke="#FFFFFF" stroke-width="2.5" stroke-linecap="round" stroke-linejoin="round" stroke-miterlimit="10" d="
		M190.8,45.2c0,0,1.7,4.1-0.1,8"/>
	<path fill="none" stroke="#FFFFFF" stroke-width="2.5" stroke-linecap="round" stroke-linejoin="round" stroke-miterlimit="10" d="
		M196,42c0,0,3.1,7.5-0.2,14.5"/>
	<circle fill="#1CB0F6" cx="215.2" cy="55" r="14.9"/>
	<path fill="#FFFFFF" d="M218.4,48l-1.5,1.6l1.1,0.8l-1.7,4l0.7-3.4l-1.5-1.1l1.5-3c-0.6-0.4-1.3-0.6-1.9-0.6
		c-3.7,0-6.7,6.4-6.7,10.2c0,3.7,3,6.5,6.7,6.5c3.7,0,6.7-2.8,6.7-6.5C221.9,53.9,220.5,50.1,218.4,48z"/>
	<path opacity="0.25" fill="#36C5F2" d="M221.5,53.6c-0.5,4-3.9,6.9-8.1,6.9c-1.5,0-2.9-0.4-4.2-1.1c1.1,2.1,3.4,3.5,6,3.5
		c3.7,0,6.7-2.8,6.7-6.5C221.9,55.6,221.7,54.6,221.5,53.6z"/>
	<g>
		<path fill="#D33131" d="M241.7,61.2c-5.6,0-10.1-4.5-10.1-10.1c0-5.6,4.5-10.1,10.1-10.1s10.1,4.5,10.1,10.1
			C251.8,56.7,247.3,61.2,241.7,61.2z"/>
		<path fill="#FFFFFF" d="M241.7,42c5,0,9.1,4.1,9.1,9.1s-4.1,9.1-9.1,9.1s-9.1-4.1-9.1-9.1S236.7,42,241.7,42 M241.7,40
			c-6.1,0-11.1,5-11.1,11.1s5,11.1,11.1,11.1c6.1,0,11.1-5,11.1-11.1S247.8,40,241.7,40L241.7,40z"/>
	</g>
	<polygon fill="#FFFFFF" points="278.7,52.7 278.3,50.4 281.4,49.9 290.1,50.2 293.6,50.4 293.8,52.6 291.3,57.4 286.7,58.9 
		281.5,57 279.1,54.9 	"/>
	<circle fill="#FFFFFF" cx="245.9" cy="48.9" r="1.3"/>
	<circle fill="#FFFFFF" cx="237.5" cy="48.9" r="1.3"/>
	<path fill="#FFFFFF" d="M236.8,55.9c0-2.7,2.2-4.8,4.8-4.8c2.7,0,4.8,2.2,4.8,4.8"/>
	<g>
		<path fill="#7AC70C" d="M286.4,61.2c-5.5,0-10.1-4.5-10.1-10.1S280.9,41,286.4,41s10.1,4.5,10.1,10.1S291.9,61.2,286.4,61.2z
			 M280.8,51.9c0.5,2.7,2.8,4.7,5.6,4.7s5.1-2,5.6-4.7H280.8z"/>
		<path fill="#FFFFFF" d="M286.4,42c5,0,9.1,4.1,9.1,9.1s-4.1,9.1-9.1,9.1c-5,0-9.1-4.1-9.1-9.1S281.4,42,286.4,42 M286.4,57.6
			c3.7,0,6.7-3,6.7-6.7h-13.4C279.8,54.6,282.7,57.6,286.4,57.6 M286.4,40c-6.1,0-11.1,5-11.1,11.1s5,11.1,11.1,11.1
			s11.1-5,11.1-11.1S292.5,40,286.4,40L286.4,40z M282.2,52.9h8.5c-0.8,1.6-2.4,2.7-4.2,2.7S283,54.5,282.2,52.9L282.2,52.9z"/>
	</g>
	<circle fill="#FFFFFF" cx="290.7" cy="47.9" r="1.3"/>
	<circle fill="#FFFFFF" cx="282.2" cy="47.9" r="1.3"/>
	<path fill="#FFB103" d="M264.1,42c-5.1,0-9.1,4.1-9.1,9.1s4.1,9.1,9.1,9.1c5.1,0,9.1-4.1,9.1-9.1S269.1,42,264.1,42z M269.2,54.6
		h-10.1c-0.5,0-1-0.4-1-1c0-0.5,0.4-1,1-1h10.1c0.5,0,1,0.4,1,1C270.2,54.2,269.7,54.6,269.2,54.6z"/>
	<g>
		<path fill="#FFB103" d="M264.1,61.3c-5.6,0-10.1-4.6-10.1-10.1c0-5.6,4.6-10.1,10.1-10.1s10.1,4.6,10.1,10.1
			C274.2,56.7,269.7,61.3,264.1,61.3z"/>
		<path fill="#FFFFFF" d="M264.1,42c5.1,0,9.1,4.1,9.1,9.1c0,5.1-4.1,9.1-9.1,9.1c-5.1,0-9.1-4.1-9.1-9.1
			C254.9,46.1,259,42,264.1,42 M264.1,40c-6.1,0-11.1,5-11.1,11.1c0,6.1,5,11.1,11.1,11.1s11.1-5,11.1-11.1
			C275.2,45,270.2,40,264.1,40L264.1,40z"/>
	</g>
	<circle fill="#FFFFFF" cx="268.3" cy="48.8" r="1.3"/>
	<circle fill="#FFFFFF" cx="259.8" cy="48.8" r="1.3"/>
	<path fill="#FFFFFF" d="M270.2,53.6c0,0.5-0.4,1-1,1h-10.1c-0.5,0-1-0.4-1-1l0,0c0-0.5,0.4-1,1-1h10.1
		C269.7,52.6,270.2,53.1,270.2,53.6L270.2,53.6z"/>
	<path fill="#00ADF8" d="M310.8,49.2l-8.3-8.3c-0.9-0.9-2.5-0.9-3.4,0s-0.9,2.5,0,3.4l6.6,6.6l-6.6,6.6c-0.9,0.9-0.9,2.5,0,3.4
		s2.5,0.9,3.4,0l8.3-8.3c0.5-0.5,0.7-1.1,0.7-1.7C311.5,50.3,311.3,49.6,310.8,49.2z"/>
	<g>
		<polygon fill="#FFFFFF" points="339.9,49 312.8,49 316.5,40 336.4,40 		"/>
		<rect x="315" y="59" fill="#7A3922" width="23" height="5"/>
		<rect x="315" y="50" fill="#7A3922" width="3" height="10"/>
		<rect x="335" y="50" fill="#7A3922" width="3" height="10"/>
		<polygon fill="#472213" points="337.5,60 315.1,60 316.7,56 335.9,56 		"/>
		<polygon fill="#B71515" points="312.8,49 318.1,49 320.6,40 316.4,40 		"/>
		<polygon fill="#B71515" points="339.9,49 334.6,49 332.1,40 336.5,40 		"/>
		<polygon fill="#B71515" points="323.7,49 329.1,49 328.6,40 324.2,40 		"/>
		<path fill="#B71515" d="M318.1,49.2c0,1.5-1.2,2.6-2.6,2.6s-2.6-1.2-2.6-2.6"/>
		<path fill="#B71515" d="M329.1,49.2c0,1.5-1.2,2.7-2.7,2.7c-1.5,0-2.7-1.2-2.7-2.7"/>
		<path fill="#B71515" d="M339.9,49.2c0,1.5-1.2,2.6-2.6,2.6c-1.5,0-2.6-1.2-2.6-2.6"/>
		<path fill="#E5E5E5" d="M334.6,49.2c0,1.5-1.2,2.8-2.8,2.8c-1.5,0-2.8-1.2-2.8-2.8"/>
		<path fill="#E5E5E5" d="M323.6,49.2c0,1.5-1.2,2.8-2.8,2.8c-1.5,0-2.8-1.2-2.8-2.8"/>
	</g>
	<g>
		<path fill="#FFC10D" d="M351.1,65.1c-1.8,0-3.3-1.3-3.5-3h-3c-0.1,0-0.2,0-0.3,0h-2.3c-0.4,0-0.7-0.2-0.9-0.5s-0.1-0.7,0.1-1
			l2.4-3.4v-6.7c0-0.1,0-0.1,0-0.2c0.1-2.8,1.7-5.3,4.2-6.5c0.2-1.5,1.6-2.7,3.1-2.7c1.6,0,2.9,1.1,3.1,2.6c2.6,1.2,4.3,3.7,4.4,6.6
			c0,0.1,0,0.1,0,0.2v6.8l2.1,3.4c0.2,0.3,0.2,0.7,0,1s-0.5,0.5-0.9,0.5h-2c-0.1,0-0.2,0-0.3,0h-2.9
			C354.4,63.8,352.9,65.1,351.1,65.1z"/>
		<path fill="#FFFFFF" d="M351,42c1.2,0,2.2,1,2.2,2.2c0,0,0,0.1,0,0.1c2.5,0.9,4.3,3.3,4.3,6.1h0v7l2.3,3.6h-2.3v0h-3.9
			c0,0.2,0,0.3,0,0.5c0,1.4-1.1,2.6-2.6,2.6s-2.6-1.1-2.6-2.6c0-0.2,0-0.3,0-0.5h-4v0h-2.5l2.5-3.6h0v-7h0c0-2.8,1.8-5.1,4.2-6
			c0-0.1,0-0.1,0-0.2C348.8,43,349.8,42,351,42 M351,40c-1.9,0-3.5,1.3-4,3c-2.6,1.4-4.2,4.1-4.4,7.1c0,0.1,0,0.2,0,0.3v6.4
			l-2.2,3.2c-0.4,0.6-0.5,1.4-0.1,2.1c0.3,0.7,1,1.1,1.8,1.1h2.1c0.1,0,0.3,0,0.4,0h2.2c0.6,1.8,2.3,3,4.3,3s3.7-1.3,4.3-3h2.1
			c0.1,0,0.3,0,0.4,0h1.9c0.7,0,1.4-0.4,1.8-1c0.4-0.6,0.3-1.4-0.1-2l-2-3.1v-6.5c0-0.1,0-0.2,0-0.3c-0.1-3-1.9-5.7-4.5-7.1
			C354.5,41.2,352.9,40,351,40L351,40z"/>
	</g>
	<g>
		<path fill="#79A100" d="M389.5,64.2c-0.6,0-1.2-0.2-1.6-0.7l-2.6-2.6c-0.4-0.4-0.7-1-0.7-1.6s0.2-1.2,0.7-1.6s1-0.7,1.6-0.7
			c0.6,0,1.2,0.2,1.6,0.7l1,1l4-4c0.4-0.4,1-0.7,1.6-0.7s1.2,0.2,1.6,0.7c0.4,0.4,0.7,1,0.7,1.6s-0.2,1.2-0.7,1.6l-5.6,5.6
			C390.8,63.9,390.2,64.2,389.5,64.2C389.5,64.2,389.5,64.2,389.5,64.2z"/>
		<path fill="#FFFFFF" d="M395.2,54.9c0.3,0,0.7,0.1,0.9,0.4c0.5,0.5,0.5,1.4,0,1.9l-5.6,5.6c-0.3,0.3-0.6,0.4-0.9,0.4c0,0,0,0,0,0
			c0,0,0,0,0,0c-0.3,0-0.7-0.1-0.9-0.4l-2.6-2.6c-0.5-0.5-0.5-1.4,0-1.9c0.3-0.3,0.6-0.4,0.9-0.4c0.3,0,0.7,0.1,0.9,0.4l1.7,1.7
			l4.7-4.7C394.5,55,394.8,54.9,395.2,54.9 M395.2,52.9c-0.9,0-1.7,0.3-2.3,1l-3.3,3.3l-0.3-0.3c-0.6-0.6-1.5-1-2.3-1
			s-1.7,0.3-2.3,1c-1.3,1.3-1.3,3.4,0,4.7l2.6,2.6c0.6,0.6,1.5,1,2.3,1c0.9,0,1.7-0.3,2.4-1l5.6-5.6c0.6-0.6,1-1.5,1-2.3
			s-0.3-1.7-1-2.3C396.9,53.3,396.1,52.9,395.2,52.9L395.2,52.9z"/>
	</g>
	<polygon fill="#1CAFF6" points="471.2,40.1 483.1,51.7 494.6,40.1 	"/>
	<polygon fill="#1CAFF6" points="470.1,41.6 478,50.2 470.1,58.9 	"/>
	<polygon fill="#1CAFF6" points="496,41.6 488.1,50.2 496,58.9 	"/>
	<polygon fill="#1CAFF6" points="471.4,59.9 494.6,59.9 486.7,51.6 482.9,55 479.3,51.6 	"/>
	<g>
		<polygon fill="#FFFFFF" points="497.2,40.1 509.1,51.7 520.6,40.1 		"/>
		<polygon fill="#FFFFFF" points="496.1,41.6 504,50.2 496.1,58.9 		"/>
		<polygon fill="#FFFFFF" points="522,41.6 514.1,50.2 522,58.9 		"/>
		<polygon fill="#FFFFFF" points="497.4,59.9 520.6,59.9 512.7,51.6 508.9,55 505.3,51.6 		"/>
	</g>
	<path d="M540.7,48h-5.5v-5.5c0-1.4-1.1-2.5-2.5-2.5c-1.4,0-2.5,1.1-2.5,2.5V48h-5.5c-1.4,0-2.5,1.1-2.5,2.5c0,1.4,1.1,2.5,2.5,2.5
		h5.5v5.5c0,1.4,1.1,2.5,2.5,2.5c1.4,0,2.5-1.1,2.5-2.5v-5.5h5.5c1.4,0,2.5-1.1,2.5-2.5C543.3,49.1,542.1,48,540.7,48z"/>
	<path fill="#FFFFFF" d="M573.3,75.5h-3.5v-3.5c0-0.9-0.7-1.7-1.7-1.7s-1.7,0.7-1.7,1.7v3.5h-3.5c-0.9,0-1.7,0.7-1.7,1.7
		c0,0.9,0.7,1.7,1.7,1.7h3.5v3.5c0,0.9,0.7,1.7,1.7,1.7s1.7-0.7,1.7-1.7v-3.5h3.5c0.9,0,1.7-0.7,1.7-1.7
		C574.9,76.2,574.2,75.5,573.3,75.5z"/>
	<path fill="#FFFFFF" d="M563.9,50.9v-2.6l-2.2-0.3c-0.2-0.9-0.5-1.8-1-2.6l1.2-1.6l-1.9-1.9l-1.6,1.2c-0.8-0.6-1.7-1-2.7-1.2
		l-0.3-1.9H553l-0.3,1.8c-1,0.2-2,0.6-2.8,1.2l-1.5-1.1l-1.9,1.9l1.2,1.5c-0.5,0.8-0.9,1.7-1,2.7l-2,0.3v2.6l2.1,0.3
		c0.2,0.9,0.6,1.7,1.1,2.4l-1.4,1.8l1.9,1.9l1.9-1.4c0.7,0.4,1.5,0.7,2.3,0.9l0.3,2.4h2.6l0.3-2.5c0.8-0.2,1.5-0.5,2.2-0.9l2,1.5
		l1.9-1.9l-1.4-1.9c0.5-0.7,0.8-1.5,1-2.3L563.9,50.9z M554.3,52.7c-1.9,0-3.4-1.5-3.4-3.4s1.5-3.4,3.4-3.4s3.4,1.5,3.4,3.4
		S556.1,52.7,554.3,52.7z"/>
	<path fill="#FFFFFF" d="M591,79.2v-2.1l-1.8-0.2c-0.1-0.8-0.4-1.5-0.8-2.1l1-1.3l-1.5-1.5l-1.3,1c-0.7-0.5-1.4-0.8-2.2-1l-0.2-1.5
		h-2.1l-0.2,1.5c-0.8,0.2-1.6,0.5-2.3,1l-1.2-0.9l-1.5,1.5l0.9,1.2c-0.4,0.7-0.7,1.4-0.8,2.2l-1.6,0.2v2.1l1.7,0.2
		c0.2,0.7,0.5,1.4,0.9,2l-1.1,1.5l1.5,1.5l1.5-1.2c0.6,0.3,1.2,0.6,1.9,0.7l0.3,2h2.1l0.3-2c0.6-0.2,1.3-0.4,1.8-0.7l1.6,1.2
		l1.5-1.5l-1.2-1.6c0.4-0.6,0.7-1.2,0.8-1.9L591,79.2z M583.1,80.7c-1.5,0-2.7-1.2-2.7-2.7s1.2-2.7,2.7-2.7c1.5,0,2.7,1.2,2.7,2.7
		S584.7,80.7,583.1,80.7z"/>
	<polygon fill="#FFFFFF" points="566.3,58.9 562.6,64.3 559,58.9 	"/>
	<path d="M575.5,44.8l3.1-3.1c0.4-0.4,0.4-1,0-1.4c-0.4-0.4-1-0.4-1.4,0l-3.7,3.7c-0.2,0.2-0.3,0.4-0.3,0.7c0,0.3,0.1,0.5,0.3,0.7
		l3.7,3.7c0.4,0.4,1,0.4,1.4,0c0.4-0.4,0.4-1,0-1.4L575.5,44.8z"/>
	<path d="M480.1,78.2l5.2-5.2c0.7-0.7,0.7-1.7,0-2.4c-0.7-0.7-1.7-0.7-2.4,0l-6.4,6.4c-0.3,0.3-0.5,0.8-0.5,1.2
		c0,0.4,0.2,0.9,0.5,1.2l6.4,6.4c0.7,0.7,1.7,0.7,2.4,0c0.7-0.7,0.7-1.7,0-2.4L480.1,78.2z"/>
	<path fill="#FFFFFF" d="M490.1,78.2l5.2-5.2c0.7-0.7,0.7-1.7,0-2.4c-0.7-0.7-1.7-0.7-2.4,0l-6.4,6.4c-0.3,0.3-0.5,0.8-0.5,1.2
		c0,0.4,0.2,0.9,0.5,1.2l6.4,6.4c0.7,0.7,1.7,0.7,2.4,0c0.7-0.7,0.7-1.7,0-2.4L490.1,78.2z"/>
	<path fill="#CBCBCB" d="M412.1,78.2l5.2-5.2c0.7-0.7,0.7-1.7,0-2.4c-0.7-0.7-1.7-0.7-2.4,0l-6.4,6.4c-0.3,0.3-0.5,0.8-0.5,1.2
		c0,0.4,0.2,0.9,0.5,1.2l6.4,6.4c0.7,0.7,1.7,0.7,2.4,0c0.7-0.7,0.7-1.7,0-2.4L412.1,78.2z"/>
	<path fill="#1CAFF6" d="M422.1,78.2l5.2-5.2c0.7-0.7,0.7-1.7,0-2.4c-0.7-0.7-1.7-0.7-2.4,0l-6.4,6.4c-0.3,0.3-0.5,0.8-0.5,1.2
		c0,0.4,0.2,0.9,0.5,1.2l6.4,6.4c0.7,0.7,1.7,0.7,2.4,0c0.7-0.7,0.7-1.7,0-2.4L422.1,78.2z"/>
	<path d="M582.4,44.8l-3.1,3.1c-0.4,0.4-0.4,1,0,1.4c0.4,0.4,1,0.4,1.4,0l3.7-3.7c0.2-0.2,0.3-0.4,0.3-0.7c0-0.3-0.1-0.5-0.3-0.7
		l-3.7-3.7c-0.4-0.4-1-0.4-1.4,0c-0.4,0.4-0.4,1,0,1.4L582.4,44.8z"/>
	<path fill="#1CAFF6" d="M575.5,54.8l3.1-3.1c0.4-0.4,0.4-1,0-1.4c-0.4-0.4-1-0.4-1.4,0l-3.7,3.7c-0.2,0.2-0.3,0.4-0.3,0.7
		c0,0.3,0.1,0.5,0.3,0.7l3.7,3.7c0.4,0.4,1,0.4,1.4,0c0.4-0.4,0.4-1,0-1.4L575.5,54.8z"/>
	<path fill="#1CAFF6" d="M582.4,54.8l-3.1,3.1c-0.4,0.4-0.4,1,0,1.4c0.4,0.4,1,0.4,1.4,0l3.7-3.7c0.2-0.2,0.3-0.4,0.3-0.7
		c0-0.3-0.1-0.5-0.3-0.7l-3.7-3.7c-0.4-0.4-1-0.4-1.4,0c-0.4,0.4-0.4,1,0,1.4L582.4,54.8z"/>
	<path fill="#EC0B1B" d="M123.4,85.8l-5.3-5.3c-0.7-0.7-1.7-0.7-2.4,0c-0.7,0.7-0.7,1.7,0,2.4l6.4,6.4c0.3,0.3,0.8,0.5,1.2,0.5
		c0.4,0,0.9-0.2,1.2-0.5l6.4-6.4c0.7-0.7,0.7-1.7,0-2.4c-0.7-0.7-1.7-0.7-2.4,0L123.4,85.8z"/>
	<path fill="#99CC00" d="M123.4,74.1l5.3,5.3c0.7,0.7,1.7,0.7,2.4,0c0.7-0.7,0.7-1.7,0-2.4l-6.4-6.4c-0.3-0.3-0.8-0.5-1.2-0.5
		c-0.4,0-0.9,0.2-1.2,0.5l-6.4,6.4c-0.7,0.7-0.7,1.7,0,2.4c0.7,0.7,1.7,0.7,2.4,0L123.4,74.1z"/>
	<path fill="#CBCBCB" d="M106.4,85.8l-5.3-5.3c-0.7-0.7-1.7-0.7-2.4,0c-0.7,0.7-0.7,1.7,0,2.4l6.4,6.4c0.3,0.3,0.8,0.5,1.2,0.5
		c0.4,0,0.9-0.2,1.2-0.5l6.4-6.4c0.7-0.7,0.7-1.7,0-2.4c-0.7-0.7-1.7-0.7-2.4,0L106.4,85.8z"/>
	<path fill="#CBCBCB" d="M106.4,74.1l5.3,5.3c0.7,0.7,1.7,0.7,2.4,0c0.7-0.7,0.7-1.7,0-2.4l-6.4-6.4c-0.3-0.3-0.8-0.5-1.2-0.5
		c-0.4,0-0.9,0.2-1.2,0.5L98.8,77c-0.7,0.7-0.7,1.7,0,2.4c0.7,0.7,1.7,0.7,2.4,0L106.4,74.1z"/>
	<path fill="#353535" d="M13.4,70.3c-0.4-0.4-1-0.4-1.4,0l-5.2,5.2l-5.2-5.2c-0.4-0.4-1-0.4-1.4,0c-0.4,0.4-0.4,1,0,1.4L6,77.4
		c0,0.1,0.1,0.2,0.2,0.2c0.4,0.4,1,0.4,1.4,0l5.9-5.9C13.8,71.3,13.8,70.7,13.4,70.3z"/>
	<path fill="#353535" d="M89.5,70.3c-0.4,0.4-0.4,1,0,1.4l5.2,5.2L89.4,82c-0.4,0.4-0.4,1,0,1.4c0.4,0.4,1,0.4,1.4,0l5.7-5.7
		c0.1,0,0.2-0.1,0.2-0.2c0.4-0.4,0.4-1,0-1.4l-5.9-5.9C90.5,69.9,89.9,69.9,89.5,70.3z"/>
	<path fill="#B0B0B0" d="M13.4,78.4c-0.4-0.4-1-0.4-1.4,0l-5.2,5.2l-5.2-5.2c-0.4-0.4-1-0.4-1.4,0c-0.4,0.4-0.4,1,0,1.4L6,85.5
		c0,0.1,0.1,0.2,0.2,0.2c0.4,0.4,1,0.4,1.4,0l5.9-5.9C13.8,79.4,13.8,78.8,13.4,78.4z"/>
	<g>
		<circle fill="#99CC00" cx="24" cy="80" r="10"/>
		<path fill="#FFFFFF" d="M29.5,76.6c-0.4-0.4-1-0.4-1.4,0L22.7,82l-2.3-2.3c-0.4-0.4-1-0.4-1.4,0c-0.4,0.4-0.4,1,0,1.4l2.8,2.8
			c0,0.1,0.1,0.2,0.2,0.3c0.4,0.4,1,0.4,1.4,0l6.1-6.1C29.9,77.6,29.9,77,29.5,76.6z"/>
	</g>
	<path fill="#353535" d="M44.8,76v-1.9c0-2.3-1.9-4.1-4.1-4.1c-2.3,0-4.1,1.9-4.1,4.1V76h-1.2v8.1H46V76H44.8z M38.3,74.1
		c0-1.3,1-2.3,2.3-2.3s2.3,1,2.3,2.3V76h-4.6V74.1z"/>
	<path fill="#FFFFFF" d="M628,51.6v-2.2c0-2.7-2.2-4.9-4.9-4.9c-2.7,0-4.9,2.2-4.9,4.9v2.2h-1.5v9.6h12.8v-9.6H628z M620.4,49.4
		c0-1.5,1.2-2.7,2.7-2.7c1.5,0,2.7,1.2,2.7,2.7v2.2h-5.4V49.4z"/>
	<path fill="#494949" d="M53.6,73.2c0-1.8-1.5-3.2-3.2-3.2s-3.2,1.5-3.2,3.2c0,1.3,0.8,2.5,2,3L47,82.9h6.6l-2.1-6.6
		C52.7,75.8,53.6,74.7,53.6,73.2z"/>
	<path fill="#B0B0B0" d="M83,70c-2.6,0-4.6,2.1-4.6,4.6c0,1,0.3,2,0.9,2.7L83,84l3.7-6.7c0.6-0.8,0.9-1.7,0.9-2.7
		C87.6,72.1,85.6,70,83,70z M83,76.3c-0.9,0-1.7-0.8-1.7-1.7s0.8-1.7,1.7-1.7s1.7,0.8,1.7,1.7S83.9,76.3,83,76.3z"/>
	<path fill="#CBCBCB" d="M145.7,82l-3.7-3.7c0.6-0.9,0.9-1.9,0.9-3c0-3-2.4-5.4-5.4-5.4s-5.4,2.4-5.4,5.4s2.4,5.4,5.4,5.4
		c1.1,0,2-0.3,2.9-0.8l3.7,3.7c0.5,0.5,1.2,0.5,1.6,0S146.1,82.5,145.7,82z M137.4,78.4c-1.7,0-3.1-1.4-3.1-3.1s1.4-3.1,3.1-3.1
		s3.1,1.4,3.1,3.1S139.1,78.4,137.4,78.4z"/>
	<path fill="#E8E8E8" d="M166.7,81.1v-2.7l-2.2-0.3c-0.2-0.9-0.5-1.8-1-2.6l1.3-1.7l-1.9-1.9l-1.6,1.2c-0.8-0.6-1.8-1-2.8-1.2
		l-0.3-1.9h-2.7l-0.3,1.8c-1,0.2-2,0.6-2.9,1.2l-1.5-1.1l-1.9,1.9l1.2,1.6c-0.5,0.8-0.9,1.8-1.1,2.8l-2,0.3v2.7l2.2,0.3
		c0.2,0.9,0.6,1.7,1.1,2.5l-1.4,1.8l1.9,1.9l1.9-1.5c0.7,0.4,1.5,0.7,2.3,0.9l0.3,2.5h2.7l0.3-2.5c0.8-0.2,1.6-0.5,2.3-0.9l2,1.5
		l1.9-1.9l-1.5-1.9c0.5-0.7,0.8-1.5,1-2.3L166.7,81.1z M156.9,82.9c-1.9,0-3.4-1.5-3.4-3.4c0-1.9,1.5-3.4,3.4-3.4
		c1.9,0,3.4,1.5,3.4,3.4C160.3,81.3,158.7,82.9,156.9,82.9z"/>
	<path fill="#1CAFF6" d="M186.7,81.1v-2.7l-2.2-0.3c-0.2-0.9-0.5-1.8-1-2.6l1.3-1.7l-1.9-1.9l-1.6,1.2c-0.8-0.6-1.8-1-2.8-1.2
		l-0.3-1.9h-2.7l-0.3,1.8c-1,0.2-2,0.6-2.9,1.2l-1.5-1.1l-1.9,1.9l1.2,1.6c-0.5,0.8-0.9,1.8-1.1,2.8l-2,0.3v2.7l2.2,0.3
		c0.2,0.9,0.6,1.7,1.1,2.5l-1.4,1.8l1.9,1.9l1.9-1.5c0.7,0.4,1.5,0.7,2.3,0.9l0.3,2.5h2.7l0.3-2.5c0.8-0.2,1.6-0.5,2.3-0.9l2,1.5
		l1.9-1.9l-1.5-1.9c0.5-0.7,0.8-1.5,1-2.3L186.7,81.1z M176.9,82.9c-1.9,0-3.4-1.5-3.4-3.4c0-1.9,1.5-3.4,3.4-3.4
		c1.9,0,3.4,1.5,3.4,3.4C180.3,81.3,178.7,82.9,176.9,82.9z"/>
	<path fill="#1CB0F6" d="M223.4,70.3c-0.4-0.4-1-0.4-1.4,0l-5.2,5.2l-5.2-5.2c-0.4-0.4-1-0.4-1.4,0c-0.4,0.4-0.4,1,0,1.4l5.7,5.7
		c0,0.1,0.1,0.2,0.2,0.2c0.4,0.4,1,0.4,1.4,0l5.9-5.9C223.8,71.3,223.8,70.7,223.4,70.3z"/>
	<path fill="#FFFFFF" d="M223.4,78.4c-0.4-0.4-1-0.4-1.4,0l-5.2,5.2l-5.2-5.2c-0.4-0.4-1-0.4-1.4,0c-0.4,0.4-0.4,1,0,1.4l5.7,5.7
		c0,0.1,0.1,0.2,0.2,0.2c0.4,0.4,1,0.4,1.4,0l5.9-5.9C223.8,79.4,223.8,78.8,223.4,78.4z"/>
	<path fill="#FFFFFF" d="M313.4,70.3c-0.4,0.4-0.4,1,0,1.4l5.2,5.2l-5.2,5.2c-0.4,0.4-0.4,1,0,1.4c0.4,0.4,1,0.4,1.4,0l5.7-5.7
		c0.1,0,0.2-0.1,0.2-0.2c0.4-0.4,0.4-1,0-1.4l-5.9-5.9C314.4,69.9,313.8,69.9,313.4,70.3z"/>
	<g>
		<path fill="#FF6C00" d="M228.4,77.1c0-0.1,0.1-0.2,0.1-0.3c0.1-0.3,0.1-0.5,0.2-0.7c0-0.2,0-0.3,0-0.4c0-0.7-0.3-0.9-0.3-0.9
			c0,0,0,0,0,0c0,0.6-0.4,1.1-0.7,1.3c-1.5,1.3-2.4,3.2-2.4,5.2c0,3.8,3.1,6.8,6.8,6.8c3.8,0,6.8-3.1,6.8-6.8c0-1.4-0.4-2.7-1.2-3.8
			c-0.6-0.9-1.6-2.2-3.4-3.5c-0.6-0.5-2.5-1.9-1.9-3.8c0-0.1,0-0.1,0-0.1c-0.1,0-0.1,0-0.2,0.1c-0.1,0.1-0.1,0.2-0.2,0.2
			c-0.2,0.3-0.5,0.5-0.7,0.8c-0.3,0.4-0.5,0.9-0.6,1.5c-0.1,0.4-0.1,0.7-0.1,1.1c0,0.6,0.2,1.1,0.4,1.7c0.1,0.4,0.3,0.8,0.4,1.3
			c0.3,1.9-0.5,2.5-1,2.7c-0.2,0.1-0.4,0.1-0.5,0.1c-0.4,0-0.7-0.1-1-0.4c-0.3-0.3-0.5-0.6-0.5-0.9c0-0.2,0-0.5,0-0.7
			C228.3,77.4,228.4,77.3,228.4,77.1z"/>
	</g>
	<path fill="#2E2E2E" d="M254.6,80.1l3.9-3.9c1.3-1.3,1.3-3.4,0-4.7c-1.3-1.3-3.4-1.3-4.7,0l-3.9,3.9l-3.9-3.9
		c-1.3-1.3-3.4-1.3-4.7,0c-1.3,1.3-1.3,3.4,0,4.7l3.9,3.9l-3.9,3.9c-1.3,1.3-1.3,3.4,0,4.7c1.3,1.3,3.4,1.3,4.7,0l3.9-3.9l3.9,3.9
		c1.3,1.3,3.4,1.3,4.7,0c1.3-1.3,1.3-3.4,0-4.7L254.6,80.1z"/>
	<path fill="#EC0B1B" d="M230.9,105.4l6.3-6.3c2.1-2.1,2.1-5.5,0-7.5c-2.1-2.1-5.5-2.1-7.5,0l-6.3,6.3l-6.3-6.3
		c-2.1-2.1-5.5-2.1-7.5,0c-2.1,2.1-2.1,5.5,0,7.5l6.3,6.3l-6.3,6.3c-2.1,2.1-2.1,5.5,0,7.5c2.1,2.1,5.5,2.1,7.5,0l6.3-6.3l6.3,6.3
		c2.1,2.1,5.5,2.1,7.5,0c2.1-2.1,2.1-5.5,0-7.5L230.9,105.4z"/>
	<path fill="#FFFFFF" d="M269.2,75.5l2.2-2.2c0.7-0.7,0.7-1.9,0-2.7c-0.7-0.7-1.9-0.7-2.7,0l-2.2,2.2l-2.2-2.2
		c-0.7-0.7-1.9-0.7-2.7,0c-0.7,0.7-0.7,1.9,0,2.7l2.2,2.2l-2.2,2.2c-0.7,0.7-0.7,1.9,0,2.7c0.7,0.7,1.9,0.7,2.7,0l2.2-2.2l2.2,2.2
		c0.7,0.7,1.9,0.7,2.7,0c0.7-0.7,0.7-1.9,0-2.7L269.2,75.5z"/>
	<g>
		<g>
			<path fill="#FFFFFF" d="M198.7,80c-0.1,0-0.2,0-0.3-0.1c-0.4-0.2-0.5-0.6-0.3-0.9c0.9-1.9,0.1-3.9,0.1-3.9
				c-0.1-0.4,0-0.8,0.4-0.9c0.4-0.1,0.8,0,0.9,0.4c0,0.1,1.1,2.6-0.1,5.1C199.3,79.9,199,80,198.7,80z"/>
		</g>
		<g>
			<path fill="#FFFFFF" d="M201.6,81.8c-0.1,0-0.2,0-0.3-0.1c-0.4-0.2-0.5-0.6-0.3-0.9c1.7-3.6,0.1-7.5,0.1-7.6
				c-0.1-0.4,0-0.8,0.4-0.9c0.4-0.1,0.8,0,0.9,0.4c0.1,0.2,1.8,4.5-0.1,8.7C202.1,81.7,201.9,81.8,201.6,81.8z"/>
		</g>
		<path fill="#FFFFFF" d="M189.4,74.2h1.6c0.1,0,0.2,0,0.3-0.1l4.3-3.6c0.3-0.2,0.7,0,0.7,0.3v12.3c0,0.3-0.4,0.5-0.7,0.3l-4.3-3.4
			c-0.1-0.1-0.2-0.1-0.3-0.1h-1.5c-0.9,0-1.6-0.7-1.6-1.6l0-2.7C188,74.8,188.6,74.2,189.4,74.2z"/>
	</g>
	<g>
		<path fill="#FFFFFF" d="M148.4,125.6c-0.4,0-0.7-0.1-1.1-0.2c-1.3-0.6-1.8-2.1-1.2-3.4c3.2-6.8,0.2-14.2,0.2-14.3
			c-0.5-1.3,0.1-2.8,1.4-3.3c1.3-0.5,2.8,0.1,3.3,1.4c0.2,0.4,3.8,9.6-0.3,18.4C150.3,125.1,149.4,125.6,148.4,125.6z"/>
	</g>
	<g>
		<path fill="#FFFFFF" d="M159,132.3c-0.4,0-0.7-0.1-1.1-0.2c-1.3-0.6-1.8-2.1-1.2-3.4c6.1-13.1,0.5-27.4,0.4-27.6
			c-0.5-1.3,0.1-2.8,1.4-3.3c1.3-0.5,2.8,0.1,3.3,1.4c0.3,0.7,6.6,16.5-0.5,31.6C160.8,131.7,159.9,132.3,159,132.3z"/>
	</g>
	<path fill="#FFFFFF" d="M114.5,104.4h5.9c0.3,0,0.7-0.1,1-0.3L137.2,91c1-0.8,2.5-0.1,2.5,1.2V137c0,1.3-1.5,2-2.4,1.2l-15.6-12.5
		c-0.3-0.2-0.6-0.3-0.9-0.3h-5.3c-3.3,0-5.9-2.7-5.9-5.9l0-9.9C109.4,106.7,111.7,104.4,114.5,104.4z"/>
	<path fill="#FFFFFF" d="M287.5,70.5c-0.8-0.8-2-0.8-2.8,0l-6.2,5.8l-1.9-1.9c-0.8-0.8-2-0.8-2.8,0s-0.8,2,0,2.8l3.1,3.1
		c0.2,0.2,0.4,0.3,0.7,0.4c0.7,0.4,1.7,0.2,2.3-0.4l7.6-7.1C288.3,72.6,288.3,71.3,287.5,70.5z"/>
	<path fill="#8DBC00" d="M204.8,91.6c-2.1-2.1-5.6-2.1-7.7,0l-16.8,15.7l-5-5c-2.1-2.1-5.6-2.1-7.7,0c-2.1,2.1-2.1,5.6,0,7.7
		l8.5,8.5c0.5,0.5,1.1,0.9,1.8,1.2c2,1,4.5,0.7,6.2-1l20.7-19.3C206.9,97.1,206.9,93.7,204.8,91.6z"/>
	<path fill="#C2C2C2" d="M296.9,76.1c0.9-0.6,1.4-1.6,1.4-2.8c0-1.9-1.5-3.4-3.4-3.4s-3.4,1.5-3.4,3.4c0,1.1,0.6,2.1,1.4,2.8
		c-2,0.8-3.5,2.8-3.5,5.1h10.9C300.4,78.8,299,76.9,296.9,76.1z"/>
	<rect x="301.2" y="70" fill="#C2C2C2" width="1.8" height="10"/>
	<polygon fill="#C2C2C2" points="304,76.1 308,75.1 308,76.3 311.3,76.1 311.3,71.4 308.6,71.5 308.6,70.1 304.1,70.7 	"/>
	<polygon fill="#FFFFFF" points="55.3,108 0.8,108 8.2,91 48.2,91 	"/>
	<rect x="5" y="129" fill="#7A3922" width="46" height="11"/>
	<rect x="5" y="110" fill="#7A3922" width="3" height="22"/>
	<rect x="46" y="110" fill="#7A3922" width="5" height="22"/>
	<polygon fill="#472213" points="50.3,131 5.5,131 8.6,123 47.2,123 	"/>
	<polygon fill="#B71515" points="0.8,108 11.4,108 16.5,91 8,91 	"/>
	<polygon fill="#B71515" points="55.3,108 44.6,108 39.6,91 48.3,91 	"/>
	<polygon fill="#B71515" points="22.6,108 33.5,108 32.5,91 23.6,91 	"/>
	<path fill="#B71515" d="M11.4,107c0,2.9-2.4,5.3-5.3,5.3s-5.3-2.4-5.3-5.3"/>
	<path fill="#B71515" d="M33.5,107c0,3-2.4,5.4-5.4,5.4c-3,0-5.4-2.4-5.4-5.4"/>
	<path fill="#B71515" d="M55.3,107c0,2.9-2.4,5.3-5.3,5.3c-2.9,0-5.3-2.4-5.3-5.3"/>
	<path fill="#E5E5E5" d="M44.6,107c0,3.1-2.5,5.6-5.6,5.6c-3.1,0-5.6-2.5-5.6-5.6"/>
	<path fill="#E5E5E5" d="M22.6,107c0,3.1-2.5,5.6-5.6,5.6c-3.1,0-5.6-2.5-5.6-5.6"/>
	<path fill="#2E2E2E" d="M281.7,94c1.6,2,2,3.5,2,4.3c-0.7-0.2-2.2-0.9-3.8-2.9c-1.6-2-1.9-3.4-2-4.3C278.7,91.4,280.1,92,281.7,94z
		"/>
	<path fill="#2E2E2E" d="M283.9,99.7c1.9,1.8,2.4,3.3,2.6,4c-0.8-0.1-2.3-0.6-4.1-2.4s-2.4-3.2-2.6-4
		C280.6,97.5,282.1,97.9,283.9,99.7z"/>
	<path fill="#2E2E2E" d="M286.5,95.8c0.5,2.5,0.1,4.1-0.2,4.8c-0.5-0.6-1.5-1.8-2-4.3c-0.5-2.5-0.1-3.9,0.2-4.8
		C285.1,92.1,286,93.3,286.5,95.8z"/>
	<path fill="#2E2E2E" d="M289.8,100.7c0,2.6-0.7,4-1.2,4.6c-0.4-0.7-1.1-2.1-1.1-4.6c0-2.6,0.7-3.9,1.2-4.6
		C289.2,96.8,289.8,98.2,289.8,100.7z"/>
	<path fill="#2E2E2E" d="M292.2,105.7c-1,2.4-2.1,3.5-2.8,3.9c-0.1-0.8-0.3-2.3,0.7-4.7c1-2.4,2.1-3.3,2.8-3.9
		C293,101.9,293.2,103.3,292.2,105.7z"/>
	<path fill="#2E2E2E" d="M292,112.3c-1.4,2.2-2.7,3-3.4,3.3c0-0.8,0.2-2.4,1.5-4.5c1.4-2.2,2.7-2.9,3.4-3.3
		C293.5,108.6,293.4,110.1,292,112.3z"/>
	<path fill="#2E2E2E" d="M291.8,117.8c-1.9,1.7-3.5,2.1-4.2,2.2c0.2-0.7,0.8-2.2,2.8-3.9c1.9-1.7,3.4-2,4.2-2.2
		C294.2,114.7,293.7,116.1,291.8,117.8z"/>
	<path fill="#2E2E2E" d="M287.6,124.3c-2.5,1.7-4.3,2-5.2,2c0.4-0.8,1.3-2.5,3.7-4.1s4.2-1.9,5.2-2
		C290.9,121.1,290.1,122.6,287.6,124.3z"/>
	<path fill="#2E2E2E" d="M285.1,129.1c-3,0.7-4.8,0.3-5.7-0.1c0.6-0.7,2.1-1.9,5.1-2.6c3-0.7,4.7-0.3,5.7,0.1
		C289.4,127.2,288,128.4,285.1,129.1z"/>
	<path fill="#2E2E2E" d="M279,132.9c-3-0.3-4.7-1.2-5.4-1.8c0.8-0.4,2.6-1.1,5.6-0.9s4.5,1.2,5.4,1.8
		C283.7,132.5,282,133.2,279,132.9z"/>
	<path fill="#2E2E2E" d="M270.6,137.5c-1.8-1.3-2.4-2.5-2.6-3.2c0.7,0,2,0.3,3.8,1.6c1.8,1.3,2.3,2.5,2.6,3.2
		C273.7,139,272.4,138.8,270.6,137.5z"/>
	<path fill="#2E2E2E" d="M273.7,135.2c-3-0.6-4.5-1.7-5.2-2.3c0.8-0.3,2.7-0.9,5.7-0.3c3,0.6,4.4,1.7,5.2,2.3
		C278.4,135.2,276.7,135.7,273.7,135.2z"/>
	<path fill="#2E2E2E" d="M273.7,130.5c-2.4,1.9-4.2,2.3-5.1,2.4c0.3-0.9,1.1-2.6,3.5-4.5c2.4-1.9,4.1-2.2,5.1-2.4
		C276.8,127,276,128.6,273.7,130.5z"/>
	<path fill="#2E2E2E" d="M281.4,125c-1.5,2.5-3,3.5-3.8,3.8c0-0.9,0.1-2.7,1.6-5.1s2.9-3.4,3.8-3.8C283,120.8,282.9,122.5,281.4,125
		z"/>
	<path fill="#2E2E2E" d="M286.8,117c-0.3,2.9-1.3,4.4-1.9,5c-0.4-0.8-1-2.5-0.6-5.3c0.3-2.9,1.3-4.3,1.9-5
		C286.6,112.6,287.1,114.2,286.8,117z"/>
	<path fill="#2E2E2E" d="M287.8,108.5c1,2.4,0.9,4.1,0.7,4.8c-0.6-0.5-1.9-1.5-2.9-3.9s-0.9-3.9-0.7-4.8
		C285.6,105.1,286.8,106.1,287.8,108.5z"/>
	<path fill="#2E2E2E" d="M254.3,94c-1.6,2-2,3.5-2,4.3c0.7-0.2,2.2-0.9,3.8-2.9c1.6-2,1.9-3.4,2-4.3C257.3,91.4,255.9,92,254.3,94z"
		/>
	<path fill="#2E2E2E" d="M252.1,99.7c-1.9,1.8-2.4,3.3-2.6,4c0.8-0.1,2.3-0.6,4.1-2.4s2.4-3.2,2.6-4C255.4,97.5,254,97.9,252.1,99.7
		z"/>
	<path fill="#2E2E2E" d="M249.5,95.8c-0.5,2.5-0.1,4.1,0.2,4.8c0.5-0.6,1.5-1.8,2-4.3c0.5-2.5,0.1-3.9-0.2-4.8
		C251,92.1,250,93.3,249.5,95.8z"/>
	<path fill="#2E2E2E" d="M246.2,100.7c0,2.6,0.7,4,1.2,4.6c0.4-0.7,1.1-2.1,1.1-4.6c0-2.6-0.7-3.9-1.2-4.6
		C246.9,96.8,246.2,98.2,246.2,100.7z"/>
	<path fill="#2E2E2E" d="M243.8,105.7c1,2.4,2.1,3.5,2.8,3.9c0.1-0.8,0.3-2.3-0.7-4.7c-1-2.4-2.1-3.3-2.8-3.9
		C243,101.9,242.9,103.3,243.8,105.7z"/>
	<path fill="#2E2E2E" d="M244.1,112.3c1.4,2.2,2.7,3,3.4,3.3c0-0.8-0.2-2.4-1.5-4.5c-1.4-2.2-2.7-2.9-3.4-3.3
		C242.5,108.6,242.7,110.1,244.1,112.3z"/>
	<path fill="#2E2E2E" d="M244.3,117.8c1.9,1.7,3.5,2.1,4.2,2.2c-0.2-0.7-0.8-2.2-2.8-3.9c-1.9-1.7-3.4-2-4.2-2.2
		C241.8,114.7,242.4,116.1,244.3,117.8z"/>
	<path fill="#2E2E2E" d="M248.4,124.3c2.5,1.7,4.3,2,5.2,2c-0.4-0.8-1.3-2.5-3.7-4.1c-2.5-1.7-4.2-1.9-5.2-2
		C245.1,121.1,246,122.6,248.4,124.3z"/>
	<path fill="#2E2E2E" d="M251,129.1c3,0.7,4.8,0.3,5.7-0.1c-0.6-0.7-2.1-1.9-5.1-2.6c-3-0.7-4.7-0.3-5.7,0.1
		C246.7,127.2,248,128.4,251,129.1z"/>
	<path fill="#2E2E2E" d="M257,132.9c3-0.3,4.7-1.2,5.4-1.8c-0.8-0.4-2.6-1.1-5.6-0.9c-3,0.3-4.5,1.2-5.4,1.8
		C252.4,132.5,254,133.2,257,132.9z"/>
	<path fill="#2E2E2E" d="M265.4,137.5c1.8-1.3,2.4-2.5,2.6-3.2c-0.7,0-2,0.3-3.8,1.6c-1.8,1.3-2.3,2.5-2.6,3.2
		C262.4,139,263.6,138.8,265.4,137.5z"/>
	<path fill="#2E2E2E" d="M262.4,135.2c3-0.6,4.5-1.7,5.2-2.3c-0.8-0.3-2.7-0.9-5.7-0.3c-3,0.6-4.4,1.7-5.2,2.3
		C257.7,135.2,259.4,135.7,262.4,135.2z"/>
	<path fill="#2E2E2E" d="M262.4,130.5c2.4,1.9,4.2,2.3,5.1,2.4c-0.3-0.9-1.1-2.6-3.5-4.5c-2.4-1.9-4.1-2.2-5.1-2.4
		C259.3,127,260,128.6,262.4,130.5z"/>
	<path fill="#2E2E2E" d="M254.7,125c1.5,2.5,3,3.5,3.8,3.8c0-0.9-0.1-2.7-1.6-5.1s-2.9-3.4-3.8-3.8
		C253.1,120.8,253.2,122.5,254.7,125z"/>
	<path fill="#2E2E2E" d="M249.3,117c0.3,2.9,1.3,4.4,1.9,5c0.4-0.8,1-2.5,0.6-5.3c-0.3-2.9-1.3-4.3-1.9-5
		C249.5,112.6,248.9,114.2,249.3,117z"/>
	<path fill="#2E2E2E" d="M248.3,108.5c-1,2.4-0.9,4.1-0.7,4.8c0.6-0.5,1.9-1.5,2.9-3.9c1-2.4,0.9-3.9,0.7-4.8
		C250.4,105.1,249.3,106.1,248.3,108.5z"/>
	<g>
		
			<rect x="63.9" y="158.6" transform="matrix(-0.7071 -0.7071 0.7071 -0.7071 -0.8972 324.5964)" fill="#C4C4C4" width="5.9" height="7.7"/>
		<polygon fill="#9E9E9E" points="64.8,160.3 65.7,167.7 71.6,161.8 67.4,157.7 		"/>
		<rect x="34.3" y="149.2" fill="#C4C4C4" width="8.9" height="5.6"/>
		<path fill="#C4C4C4" d="M63.7,157.5c-0.7,0.7-0.7,1.7,0,2.4l5.5,5.5c0.7,0.7,1.7,0.7,2.4,0l4-4c0.7-0.7,0.7-1.7,0-2.4l-5.5-5.5
			c-0.7-0.7-1.7-0.7-2.4,0L63.7,157.5z"/>
		
			<rect x="7.4" y="158.6" transform="matrix(0.7071 -0.7071 0.7071 0.7071 -111.8715 54.8862)" fill="#C4C4C4" width="5.9" height="7.7"/>
		<polygon fill="#9E9E9E" points="12.3,160.3 11.4,167.7 5.5,161.8 9.7,157.7 		"/>
		<path fill="#C4C4C4" d="M13.4,157.5c0.7,0.7,0.7,1.7,0,2.4l-5.5,5.5c-0.7,0.7-1.7,0.7-2.4,0l-4-4c-0.7-0.7-0.7-1.7,0-2.4l5.5-5.5
			c0.7-0.7,1.7-0.7,2.4,0L13.4,157.5z"/>
		<rect x="34.3" y="146" fill="#9E9E9E" width="8.9" height="5.8"/>
		<circle fill="#C4C4C4" cx="38.7" cy="190" r="36"/>
		<circle fill="#FFFFFF" cx="38.7" cy="190" r="28.9"/>
		<path fill="#6FB500" d="M38.8,187l20.5,23.6c5.4-5.4,8.8-11.6,8.8-19.8c0-16.4-13.3-29.6-29.6-29.6c-0.1,0,0.4,0,0.3,0V187z"/>
		<path fill="#9B9B9B" d="M37.8,209.7c0-0.6,0.5-1,1-1l0,0c0.6,0,1,0.5,1,1v3.7c0,0.6-0.5,1-1,1l0,0c-0.6,0-1-0.5-1-1V209.7z"/>
		<path opacity="8.000000e-02" d="M26.3,171.3c11.4-7.6,26.1-6.4,36,2.1c-9-12.7-26.5-16.1-39.6-7.4c-13.1,8.7-16.8,26.1-8.5,39.3
			C10.3,192.9,14.9,178.9,26.3,171.3z"/>
		<path fill="#C4C4C4" d="M46.7,147.5c0,0.9-0.8,1.7-1.7,1.7H32.4c-0.9,0-1.7-0.8-1.7-1.7v-5.8c0-0.9,0.8-1.7,1.7-1.7H45
			c0.9,0,1.7,0.8,1.7,1.7V147.5z"/>
		<path fill="#9B9B9B" d="M15.3,191.1c-0.6,0-1-0.5-1-1l0,0c0-0.6,0.5-1,1-1H19c0.6,0,1,0.5,1,1l0,0c0,0.6-0.5,1-1,1H15.3z"/>
		<path fill="#5A8900" d="M39.8,170.4c0,0.6-0.5,1-1,1l0,0c-0.6,0-1-0.5-1-1v-3.7c0-0.6,0.5-1,1-1l0,0c0.6,0,1,0.5,1,1V170.4z"/>
		<path fill="#5A8900" d="M62.1,188.9c0.6,0,1,0.5,1,1l0,0c0,0.6-0.5,1-1,1h-3.7c-0.6,0-1-0.5-1-1l0,0c0-0.6,0.5-1,1-1H62.1z"/>
		<path opacity="0.7" fill="#9B9B9B" d="M23.1,204.8c0.4-0.4,1-0.4,1.4,0l0,0c0.4,0.4,0.4,1,0,1.4l-1.3,1.3c-0.4,0.4-1,0.4-1.4,0
			l0,0c-0.4-0.4-0.4-1,0-1.4L23.1,204.8z"/>
		<path opacity="0.7" fill="#9B9B9B" d="M21.4,174.3c-0.4-0.4-0.4-1,0-1.4l0,0c0.4-0.4,1-0.4,1.4,0l1.3,1.3c0.4,0.4,0.4,1,0,1.4l0,0
			c-0.4,0.4-1,0.4-1.4,0L21.4,174.3z"/>
		<path fill="#5A8900" d="M55,175.9c-0.4,0.4-1,0.4-1.4,0l0,0c-0.4-0.4-0.4-1,0-1.4l1.3-1.3c0.4-0.4,1-0.4,1.4,0l0,0
			c0.4,0.4,0.4,1,0,1.4L55,175.9z"/>
		<path fill="#5A8900" d="M56.2,205.6c0.4,0.4,0.4,1,0,1.4l0,0c-0.4,0.4-1,0.4-1.4,0l-1.3-1.3c-0.4-0.4-0.4-1,0-1.4l0,0
			c0.4-0.4,1-0.4,1.4,0L56.2,205.6z"/>
		<path opacity="0.7" fill="#9B9B9B" d="M18.8,198c0.5-0.2,1.1,0,1.3,0.5l0,0c0.2,0.5,0,1.1-0.5,1.3l-1.7,0.8
			c-0.5,0.2-1.1,0-1.3-0.5l0,0c-0.2-0.5,0-1.1,0.5-1.3L18.8,198z"/>
		<path opacity="0.7" fill="#9B9B9B" d="M28.4,169c-0.2-0.5,0-1.1,0.5-1.3l0,0c0.5-0.2,1.1,0,1.3,0.5l0.8,1.7c0.2,0.5,0,1.1-0.5,1.3
			l0,0c-0.5,0.2-1.1,0-1.3-0.5L28.4,169z"/>
		<path fill="#5A8900" d="M59.1,182.8c-0.5,0.2-1.1,0-1.3-0.5l0,0c-0.2-0.5,0-1.1,0.5-1.3l1.7-0.8c0.5-0.2,1.1,0,1.3,0.5l0,0
			c0.2,0.5,0,1.1-0.5,1.3L59.1,182.8z"/>
		<path fill="#9B9B9B" d="M49.4,210.8c0.2,0.5,0,1.1-0.5,1.3l0,0c-0.5,0.2-1.1,0-1.3-0.5l-0.8-1.7c-0.2-0.5,0-1.1,0.5-1.3l0,0
			c0.5-0.2,1.1,0,1.3,0.5L49.4,210.8z"/>
		<path opacity="0.7" fill="#9B9B9B" d="M29.9,209.6c0.2-0.5,0.8-0.8,1.3-0.5l0,0c0.5,0.2,0.8,0.8,0.5,1.3l-0.7,1.7
			c-0.2,0.5-0.8,0.8-1.3,0.5l0,0c-0.5-0.2-0.8-0.8-0.5-1.3L29.9,209.6z"/>
		<path opacity="0.7" fill="#9B9B9B" d="M16.9,182c-0.5-0.2-0.8-0.8-0.5-1.3l0,0c0.2-0.5,0.8-0.8,1.3-0.5l1.7,0.7
			c0.5,0.2,0.8,0.8,0.5,1.3l0,0c-0.2,0.5-0.8,0.8-1.3,0.5L16.9,182z"/>
		<path fill="#5A8900" d="M48.6,170.9c-0.2,0.5-0.8,0.8-1.3,0.5l0,0c-0.5-0.2-0.8-0.8-0.5-1.3l0.7-1.7c0.2-0.5,0.8-0.8,1.3-0.5l0,0
			c0.5,0.2,0.8,0.8,0.5,1.3L48.6,170.9z"/>
		<path fill="#D33131" d="M55.7,205.6l-12.4-15.3c0-0.1,0-0.3,0-0.4c-0.1-2.5-2.1-4.5-4.7-4.4c-2.5,0.1-4.5,2.1-4.4,4.7
			c0.1,2.5,2.1,4.5,4.7,4.4c0.1,0,0.2,0,0.3,0l15.7,11.9c0.1,0.1,0.2,0.1,0.4,0.1c0.2,0,0.3-0.1,0.4-0.2
			C55.8,206.1,55.8,205.8,55.7,205.6z"/>
		<path fill="#5A8900" d="M60.9,197.9c0.5,0.2,0.8,0.8,0.5,1.3l0,0c-0.2,0.5-0.8,0.8-1.3,0.5l-1.7-0.7c-0.5-0.2-0.8-0.8-0.5-1.3l0,0
			c0.2-0.5,0.8-0.8,1.3-0.5L60.9,197.9z"/>
		<circle fill="#FFFFFF" cx="38.8" cy="190" r="1.7"/>
		
			<path fill="none" stroke="#FFFFFF" stroke-width="2.5679" stroke-linecap="round" stroke-linejoin="round" stroke-miterlimit="10" d="
			M20.1,163.4c0,0-3.8,2.2-6.7,6.2"/>
		<circle fill="#FFFFFF" cx="24.4" cy="160.6" r="1.4"/>
	</g>
	<g>
		<path fill="#16A8E7" d="M311.1,123.9c4.5,0,8.2-3.7,8.2-8.2V98.2c0-4.5-3.7-8.2-8.2-8.2c-4.5,0-8.2,3.7-8.2,8.2v17.5
			C302.9,120.2,306.6,123.9,311.1,123.9z"/>
		<path fill="#16A8E7" d="M323,107.2v8.5c0,6.5-5.3,11.9-11.9,11.9s-11.9-5.3-11.9-11.9v-8.5h-3v8.5c0,7.6,5.8,13.9,13.2,14.8v6.8
			H303v3h16.2v-3h-6.9v-6.8c7.6-0.7,13.6-7,13.6-14.8v-8.5H323z"/>
	</g>
	<g>
		<path fill="#FFFFFF" d="M341.1,123.9c4.5,0,8.2-3.7,8.2-8.2V98.2c0-4.5-3.7-8.2-8.2-8.2c-4.5,0-8.2,3.7-8.2,8.2v17.5
			C332.9,120.2,336.6,123.9,341.1,123.9z"/>
		<path fill="#FFFFFF" d="M353,107.2v8.5c0,6.5-5.3,11.9-11.9,11.9s-11.9-5.3-11.9-11.9v-8.5h-3v8.5c0,7.6,5.8,13.9,13.2,14.8v6.8
			H333v3h16.2v-3h-6.9v-6.8c7.6-0.7,13.6-7,13.6-14.8v-8.5H353z"/>
	</g>
	<g>
		<path fill="#ECEEEC" d="M371.1,123.9c4.5,0,8.2-3.7,8.2-8.2V98.2c0-4.5-3.7-8.2-8.2-8.2c-4.5,0-8.2,3.7-8.2,8.2v17.5
			C362.9,120.2,366.6,123.9,371.1,123.9z"/>
		<path fill="#ECEEEC" d="M383,107.2v8.5c0,6.5-5.3,11.9-11.9,11.9s-11.9-5.3-11.9-11.9v-8.5h-3v8.5c0,7.6,5.8,13.9,13.2,14.8v6.8
			H363v3h16.2v-3h-6.9v-6.8c7.6-0.7,13.6-7,13.6-14.8v-8.5H383z"/>
	</g>
	<g>
		<g>
			<path fill="#1CB0F6" d="M37.3,17.2c0,0.1,0,0.1,0,0.2c0,1.9-0.1,3.1-0.3,3.6c-0.3,0.8-0.7,1.4-1.4,1.8c-0.6,0.4-1.3,0.6-2.2,0.6
				c-0.9,0-1.6-0.2-2.2-0.6c-0.6-0.4-1-1-1.3-1.8c-0.3-0.7-0.4-1.9-0.4-3.7c0-0.1,0-0.2,0-0.4V7h-5.3v8.7c0,0.6,0,1.2,0,1.7
				c0.1,2.4,0.3,4.1,0.6,5.2c0.6,1.8,1.6,3.2,3,4.3c1.4,1,3.3,1.5,5.5,1.5c2.1,0,3.8-0.4,5.2-1.3c1.4-0.9,2.4-2.1,3.1-3.8
				c0.5-1.1,0.8-3.1,0.8-5.9c0-0.5,0-1,0-1.6V7h-5.2V17.2z M21.8,0h-5.2v8.1C16.5,8.1,16.4,8,16.3,8c-1.7-1-3.6-1.5-5.5-1.5
				c-2.7,0-5.1,0.9-7.2,2.8C1.2,11.5,0,14.2,0,17.4h0c0,0,0,0,0,0c0,3,1.1,5.6,3.2,7.7c2.1,2.1,4.7,3.2,7.6,3.2c2,0,3.9-0.5,5.6-1.4
				c1.7-1,3-2.3,4-4c0.9-1.5,1.3-3.1,1.4-4.8v0c0-0.2,0-0.5,0-0.7c0-0.2,0-0.5,0-0.7V0z M14.9,21.8c-1.1,1.1-2.4,1.7-4.1,1.7
				c-1.6,0-3-0.6-4-1.7c-1.1-1.1-1.6-2.6-1.6-4.4c0,0,0,0,0,0h0c0-1.7,0.5-3.2,1.6-4.3c1.1-1.1,2.4-1.7,4-1.7c1.7,0,3,0.6,4.1,1.7
				c1.1,1.1,1.6,2.6,1.6,4.3c0,0,0,0,0,0C16.5,19.2,16,20.7,14.9,21.8z M64.7,12c-1-1.7-2.3-3-4-4c-1.7-1-3.6-1.5-5.5-1.5
				c-2.7,0-5.1,0.9-7.2,2.8c-2.4,2.2-3.6,4.8-3.6,8.1c0,0,0,0,0,0c0,3,1.1,5.6,3.2,7.7c2.1,2.1,4.7,3.2,7.6,3.2c2,0,3.9-0.5,5.6-1.4
				c1.7-1,3-2.3,4-4c1-1.7,1.5-3.5,1.5-5.5C66.1,15.5,65.7,13.7,64.7,12z M59.3,21.8c-1.1,1.1-2.4,1.7-4.1,1.7s-3-0.6-4-1.7
				c-1.1-1.1-1.6-2.6-1.6-4.4c0,0,0,0,0,0c0-1.7,0.5-3.2,1.6-4.3c1.1-1.1,2.4-1.7,4-1.7c1.7,0,3,0.6,4.1,1.7
				c1.1,1.1,1.6,2.6,1.6,4.3c0,0,0,0,0,0C60.9,19.2,60.3,20.7,59.3,21.8z"/>
			<path fill="#1CB0F6" d="M84.3,28h5.3V7.9h-5.3V28z M75.3,22.6c-0.6-0.4-1.1-1-1.3-1.8c-0.2-0.6-0.3-1.8-0.3-3.6V0h-5.2v15.5
				c0,0.6,0,1.1,0,1.6c0.1,2.8,0.3,4.7,0.8,5.9c0.7,1.6,1.7,2.9,3.1,3.8c1.4,0.9,3.1,1.3,5.2,1.3h4v-4.9h-4.1
				C76.6,23.2,75.9,23,75.3,22.6z M110.2,11.8c-0.7-1.6-1.7-2.9-3.1-3.8c-1.4-0.9-3.1-1.3-5.2-1.3c-2.3,0-4.1,0.5-5.5,1.5
				c-1.4,1-2.4,2.4-3,4.3c-0.3,1-0.5,2.8-0.6,5.2c0,0.5,0,1.1,0,1.7V28h5.3V18c0-0.1,0-0.2,0-0.4c0-1.7,0.1-3,0.4-3.7
				c0.3-0.8,0.7-1.3,1.3-1.8c0.6-0.4,1.3-0.6,2.2-0.6c0.9,0,1.6,0.2,2.2,0.6c0.6,0.4,1.1,1,1.4,1.8c0.2,0.6,0.3,1.8,0.3,3.6
				c0,0.1,0,0.1,0,0.2V28h5.2v-8.8c0-0.6,0-1.1,0-1.6C111,14.9,110.7,12.9,110.2,11.8z M86.8,0.4c-1.5,0-2.8,1.3-2.8,2.8
				c0,1.5,1.2,2.8,2.8,2.8c1.5,0,2.8-1.2,2.8-2.8C89.6,1.6,88.3,0.4,86.8,0.4z M156.7,12.2c-1-1.7-2.3-3-4-4c-1.7-1-3.5-1.4-5.6-1.4
				c-3,0-5.5,1.1-7.6,3.2c-2.1,2.1-3.2,4.7-3.2,7.7v0c0,3.2,1.2,5.9,3.6,8.1c2.1,1.9,4.5,2.8,7.2,2.8c2,0,3.8-0.5,5.5-1.5
				c1.7-1,3.1-2.3,4-4c1-1.7,1.5-3.5,1.5-5.4C158.2,15.7,157.7,13.9,156.7,12.2z M152.9,17.7c0,1.8-0.5,3.2-1.6,4.3
				c-1.1,1.1-2.4,1.7-4.1,1.7c-1.6,0-3-0.6-4-1.7c-1.1-1.1-1.6-2.6-1.6-4.3c0,0,0,0,0,0c0-1.8,0.5-3.3,1.6-4.4
				c1.1-1.1,2.4-1.7,4-1.7c1.6,0,3,0.6,4.1,1.7C152.4,14.4,152.9,15.9,152.9,17.7C152.9,17.6,152.9,17.6,152.9,17.7z M134.5,16.8
				c-0.1-1.7-0.6-3.2-1.4-4.7c-1-1.7-2.3-3-3.9-4c-1.7-1-3.5-1.4-5.5-1.4c-3,0-5.5,1-7.6,3.2c-2.1,2.1-3.1,4.7-3.1,7.7c0,0,0,0,0,0
				h0c0,3.2,1.2,5.9,3.5,8c2.1,1.9,4.4,2.8,7.1,2.8c1.9,0,3.8-0.5,5.5-1.5c0.1-0.1,0.2-0.1,0.3-0.2v2.4c0,1.8-0.6,3.2-1.6,4.3
				c-1.1,1.1-2.4,1.7-4,1.7c-1.6,0-2.9-0.5-4-1.6l-3.4,3.6c0,0,0.1,0.1,0.1,0.1c2.1,1.9,4.5,2.8,7.1,2.8c1.9,0,3.8-0.5,5.5-1.5
				c1.7-1,3-2.3,4-4c1-1.7,1.4-3.5,1.4-5.4V18.2c0-0.2,0-0.4,0-0.7h0C134.6,17.3,134.6,17,134.5,16.8L134.5,16.8z M129.4,17.5
				L129.4,17.5c0,1.8-0.5,3.2-1.6,4.3c-1.1,1.1-2.4,1.7-4,1.7c-1.6,0-2.9-0.6-4-1.7c-1.1-1.1-1.6-2.5-1.6-4.3h0c0,0,0,0,0,0
				c0-1.8,0.5-3.2,1.6-4.4c1.1-1.1,2.4-1.7,4-1.7c1.6,0,3,0.6,4,1.7C128.8,14.3,129.4,15.7,129.4,17.5
				C129.4,17.5,129.4,17.5,129.4,17.5z"/>
		</g>
	</g>
	<g>
		<g>
			<path fill="#FFFFFF" d="M197,17.1c0,0.1,0,0.1,0,0.2c0,1.8-0.1,3.1-0.3,3.6c-0.3,0.8-0.7,1.4-1.3,1.8c-0.6,0.4-1.3,0.6-2.2,0.6
				c-0.9,0-1.6-0.2-2.2-0.6c-0.6-0.4-1-1-1.3-1.8c-0.3-0.7-0.4-1.9-0.4-3.7c0-0.1,0-0.2,0-0.4V7h-5.2v8.6c0,0.6,0,1.2,0,1.7
				c0.1,2.4,0.3,4.1,0.6,5.1c0.6,1.8,1.6,3.2,3,4.2c1.4,1,3.2,1.5,5.5,1.5c2.1,0,3.8-0.4,5.2-1.3c1.4-0.9,2.4-2.1,3.1-3.7
				c0.5-1.1,0.8-3.1,0.8-5.8c0-0.5,0-1,0-1.6V7H197V17.1z M181.6,0h-5.2v8.1c-0.1-0.1-0.2-0.1-0.3-0.2c-1.7-1-3.5-1.5-5.5-1.5
				c-2.7,0-5.1,0.9-7.2,2.8c-2.4,2.1-3.5,4.8-3.5,8h0c0,0,0,0,0,0c0,3,1,5.6,3.1,7.7c2.1,2.1,4.6,3.2,7.6,3.2c2,0,3.9-0.5,5.5-1.4
				c1.7-1,3-2.3,4-4c0.8-1.5,1.3-3.1,1.4-4.7v0c0-0.2,0-0.5,0-0.7c0-0.2,0-0.4,0-0.7V0z M174.8,21.7c-1.1,1.1-2.4,1.7-4.1,1.7
				c-1.6,0-3-0.6-4-1.7c-1.1-1.1-1.6-2.6-1.6-4.4c0,0,0,0,0,0h0c0-1.7,0.5-3.2,1.6-4.3c1.1-1.1,2.4-1.7,4-1.7c1.6,0,3,0.6,4.1,1.7
				c1.1,1.1,1.6,2.5,1.6,4.3c0,0,0,0,0,0C176.4,19.1,175.9,20.6,174.8,21.7z M224.3,11.9c-1-1.7-2.3-3-4-4c-1.7-1-3.5-1.5-5.5-1.5
				c-2.7,0-5.1,0.9-7.2,2.8c-2.4,2.1-3.5,4.8-3.5,8c0,0,0,0,0,0c0,3,1,5.6,3.1,7.7c2.1,2.1,4.6,3.2,7.6,3.2c2,0,3.9-0.5,5.5-1.4
				c1.7-1,3-2.3,4-4c1-1.7,1.5-3.5,1.5-5.5C225.7,15.4,225.2,13.6,224.3,11.9z M218.9,21.7c-1.1,1.1-2.4,1.7-4.1,1.7
				c-1.6,0-3-0.6-4-1.7c-1.1-1.1-1.6-2.6-1.6-4.4c0,0,0,0,0,0c0-1.7,0.5-3.2,1.6-4.3c1.1-1.1,2.4-1.7,4-1.7c1.6,0,3,0.6,4.1,1.7
				c1.1,1.1,1.6,2.5,1.6,4.3c0,0,0,0,0,0C220.5,19.1,220,20.6,218.9,21.7z"/>
			<path fill="#FFFFFF" d="M243.8,27.8h5.2v-20h-5.2V27.8z M234.8,22.4c-0.6-0.4-1.1-1-1.3-1.8c-0.2-0.6-0.3-1.8-0.3-3.6V0H228v15.4
				c0,0.5,0,1.1,0,1.6c0.1,2.8,0.3,4.7,0.8,5.8c0.7,1.6,1.7,2.9,3.1,3.7c1.4,0.9,3.1,1.3,5.2,1.3h4V23h-4
				C236.2,23,235.4,22.8,234.8,22.4z M269.5,11.7c-0.7-1.6-1.7-2.9-3.1-3.7c-1.4-0.9-3.1-1.3-5.2-1.3c-2.3,0-4.1,0.5-5.5,1.5
				c-1.4,1-2.4,2.4-3,4.2c-0.3,1-0.5,2.7-0.6,5.1c0,0.5,0,1.1,0,1.7v8.6h5.2v-9.9c0-0.1,0-0.2,0-0.4c0-1.7,0.1-3,0.4-3.7
				c0.3-0.8,0.7-1.3,1.3-1.8c0.6-0.4,1.3-0.6,2.2-0.6c0.9,0,1.6,0.2,2.2,0.6c0.6,0.4,1,1,1.3,1.8c0.2,0.6,0.3,1.8,0.3,3.6
				c0,0.1,0,0.1,0,0.2v10.1h5.2v-8.8c0-0.5,0-1.1,0-1.6C270.3,14.8,270,12.8,269.5,11.7z M246.3,0.4c-1.5,0-2.8,1.2-2.8,2.8
				c0,1.5,1.2,2.8,2.8,2.8c1.5,0,2.8-1.2,2.8-2.8C249,1.6,247.8,0.4,246.3,0.4z M315.7,12.1c-1-1.7-2.3-3-4-4
				c-1.7-1-3.5-1.4-5.5-1.4c-3,0-5.5,1.1-7.6,3.2c-2.1,2.1-3.1,4.7-3.1,7.7v0c0,3.2,1.2,5.9,3.6,8c2.1,1.9,4.5,2.8,7.2,2.8
				c1.9,0,3.8-0.5,5.5-1.5c1.7-1,3-2.3,4-4c1-1.7,1.4-3.5,1.4-5.4C317.2,15.6,316.7,13.8,315.7,12.1z M311.9,17.5
				c0,1.8-0.5,3.2-1.6,4.3c-1.1,1.1-2.4,1.7-4.1,1.7c-1.6,0-3-0.6-4-1.7c-1.1-1.1-1.6-2.5-1.6-4.3c0,0,0,0,0,0
				c0-1.8,0.5-3.3,1.6-4.4c1.1-1.1,2.4-1.7,4-1.7c1.6,0,3,0.6,4.1,1.7C311.4,14.3,312,15.8,311.9,17.5
				C312,17.5,311.9,17.5,311.9,17.5z M293.7,16.7c-0.1-1.7-0.6-3.2-1.4-4.7c-1-1.7-2.3-3-3.9-3.9c-1.7-0.9-3.5-1.4-5.5-1.4
				c-2.9,0-5.4,1-7.5,3.1c-2.1,2.1-3.1,4.6-3.1,7.6c0,0,0,0,0,0h0c0,3.2,1.2,5.8,3.5,8c2.1,1.9,4.4,2.8,7.1,2.8
				c1.9,0,3.7-0.5,5.4-1.4c0.1-0.1,0.2-0.1,0.3-0.2v2.3c0,1.7-0.6,3.2-1.6,4.3c-1,1.1-2.4,1.6-4,1.6c-1.6,0-2.9-0.5-3.9-1.6
				l-3.3,3.6c0,0,0.1,0.1,0.1,0.1c2.1,1.9,4.4,2.8,7.1,2.8c1.9,0,3.7-0.5,5.4-1.4c1.7-1,3-2.3,4-3.9c1-1.7,1.4-3.4,1.4-5.4V18.1
				c0-0.2,0-0.4,0-0.7h0C293.7,17.2,293.7,16.9,293.7,16.7L293.7,16.7z M288.5,17.4L288.5,17.4c0,1.7-0.5,3.2-1.6,4.3
				c-1.1,1.1-2.4,1.6-4,1.6c-1.6,0-2.9-0.6-4-1.7c-1.1-1.1-1.6-2.5-1.6-4.2h0c0,0,0,0,0,0c0-1.8,0.5-3.2,1.6-4.3
				c1-1.1,2.4-1.7,4-1.7c1.6,0,2.9,0.6,4,1.7C288,14.2,288.5,15.6,288.5,17.4C288.5,17.4,288.5,17.4,288.5,17.4z"/>
		</g>
	</g>
	<g>
		<path fill="#FFFFFF" d="M429.5,50.4c0-1.2,3.3-2,3.3-5.6c0-2.6-2.1-3.7-2.1-3.7l1.8-0.1l1.6-1.1c0,0-2,0-5.7,0s-7,1.8-7,5.6
			c0,4,3.8,4.5,4.7,4.5c0.5,0,1-0.1,1-0.1s-0.4,0.4-0.4,1.2c0,0.5,0.2,1.1,0.9,1.8c-6.3,0-7.6,3.3-7.6,4.9c0,1.6,1.3,4.1,6.1,4.1
			s7.6-2.4,7.6-5.6C433.8,53.3,429.5,52.1,429.5,50.4z M427.6,49.2c-1.5,0-3.6-1.9-3.6-5.1c0-3.2,2.5-3,2.5-3c1.6,0,3.7,1.7,3.7,5.1
			C430.2,48.2,429.1,49.2,427.6,49.2z M427.6,60.8c-2.8,0-5.1-1.3-5.1-3.5c0-2.2,2-3.3,6.1-3.3c0,0,3.1,1.7,3.1,3.7
			S430.4,60.8,427.6,60.8z"/>
		<polygon fill="#FFFFFF" points="443,49.1 440.1,49.1 440.1,46.2 438.6,46.2 438.6,49.1 435.7,49.1 435.7,50.6 438.6,50.6 
			438.6,53.5 440.1,53.5 440.1,50.6 443,50.6 		"/>
	</g>
	<g>
		<path fill="#FFFFFF" d="M395.5,78.2c0-0.9,2.6-1.6,2.6-4.4c0-2-1.6-2.9-1.6-2.9l1.4-0.1l1.3-0.8c0,0-1.5,0-4.5,0
			c-3,0-5.5,1.4-5.5,4.4c0,3.2,3,3.6,3.7,3.6c0.4,0,0.8-0.1,0.8-0.1s-0.3,0.3-0.3,1c0,0.4,0.1,0.9,0.7,1.4c-4.9,0-6,2.6-6,3.8
			s1,3.2,4.8,3.2c3.8,0,6-1.9,6-4.4S395.5,79.5,395.5,78.2z M394,77.3c-1.2,0-2.8-1.5-2.8-4c0-2.5,2-2.4,2-2.4c1.2,0,2.9,1.4,2.9,4
			C396.1,76.4,395.2,77.3,394,77.3z M394,86.3c-2.2,0-4-1-4-2.8c0-1.7,1.6-2.6,4.8-2.6c0,0,2.4,1.3,2.4,2.9S396.2,86.3,394,86.3z"/>
		<polygon fill="#FFFFFF" points="406.1,77.2 403.8,77.2 403.8,74.9 402.6,74.9 402.6,77.2 400.3,77.2 400.3,78.4 402.6,78.4 
			402.6,80.6 403.8,80.6 403.8,78.4 406.1,78.4 		"/>
	</g>
	<path fill="#DF4A32" d="M376,78.2c0-0.9,2.6-1.6,2.6-4.4c0-2-1.6-2.9-1.6-2.9l1.4-0.1l1.3-0.8c0,0-1.5,0-4.5,0
		c-3,0-5.5,1.4-5.5,4.4c0,3.2,3,3.6,3.7,3.6c0.4,0,0.8-0.1,0.8-0.1s-0.3,0.3-0.3,1c0,0.4,0.1,0.9,0.7,1.4c-4.9,0-6,2.6-6,3.8
		s1,3.2,4.8,3.2c3.8,0,6-1.9,6-4.4S376,79.5,376,78.2z M374.5,77.3c-1.2,0-2.8-1.5-2.8-4c0-2.5,2-2.4,2-2.4c1.2,0,2.9,1.4,2.9,4
		C376.6,76.4,375.7,77.3,374.5,77.3z M374.5,86.3c-2.2,0-4-1-4-2.8c0-1.7,1.6-2.6,4.8-2.6c0,0,2.4,1.3,2.4,2.9
		S376.7,86.3,374.5,86.3z"/>
	<polygon fill="#DF4A32" points="386.6,77.4 384.3,77.4 384.3,75.1 383.1,75.1 383.1,77.4 380.8,77.4 380.8,78.6 383.1,78.6 
		383.1,80.9 384.3,80.9 384.3,78.6 386.6,78.6 	"/>
	<path fill="#3B5999" d="M353.5,78.5l0.4-2.8h-2.8V74c0-0.8,0.2-1.4,1.4-1.4l1.5,0v-2.5c-0.3,0-1.1-0.1-2.1-0.1
		c-2.1,0-3.6,1.3-3.6,3.7v2.1h-2.4v2.8h2.4v7.1h2.9v-7.1H353.5z"/>
	<g>
		<path fill="#FFFFFF" d="M329.1,79.5c0,0.3-0.2,0.5-0.5,0.5h-3c-0.3,0-0.5-0.2-0.5-0.5v-9c0-0.3,0.2-0.5,0.5-0.5h3
			c0.3,0,0.5,0.2,0.5,0.5V79.5z"/>
		<path fill="#FFFFFF" d="M341.1,79.5c0,0.3-0.2,0.5-0.5,0.5h-3c-0.3,0-0.5-0.2-0.5-0.5v-9c0-0.3,0.2-0.5,0.5-0.5h3
			c0.3,0,0.5,0.2,0.5,0.5V79.5z"/>
		<rect x="322.1" y="73" fill="#FFFFFF" width="2" height="3.9"/>
		<rect x="342.1" y="73" fill="#FFFFFF" width="2" height="3.9"/>
		<rect x="330.1" y="74" fill="#FFFFFF" width="5.9" height="2"/>
	</g>
	<polygon fill="#FFFFFF" points="454.8,70.1 456.7,74 461,74.7 457.9,77.7 458.6,82 454.8,80 450.9,82 451.6,77.7 448.5,74.7 
		452.8,74 	"/>
	<g>
		<defs>
			<rect id="SVGID_1_" x="63.2" y="70" width="14.6" height="11.8"/>
		</defs>
		<clipPath id="SVGID_2_">
			<use xlink:href="#SVGID_1_"  overflow="visible"/>
		</clipPath>
		<g clip-path="url(#SVGID_2_)">
			<defs>
				<rect id="SVGID_3_" x="63.2" y="70" width="14.6" height="11.9"/>
			</defs>
			<clipPath id="SVGID_4_">
				<use xlink:href="#SVGID_3_"  overflow="visible"/>
			</clipPath>
			<path clip-path="url(#SVGID_4_)" fill="#FFFFFF" d="M67.8,81.8c-1.7,0-3.3-0.5-4.6-1.3c0.2,0,0.5,0,0.7,0c1.4,0,2.7-0.5,3.7-1.3
				c-1.3,0-2.4-0.9-2.8-2.1c0.2,0,0.4,0.1,0.6,0.1c0.3,0,0.5,0,0.8-0.1c-1.4-0.3-2.4-1.5-2.4-2.9c0,0,0,0,0,0
				c0.4,0.2,0.9,0.4,1.4,0.4c-0.8-0.5-1.3-1.5-1.3-2.5c0-0.5,0.1-1.1,0.4-1.5c1.5,1.8,3.7,3,6.2,3.1c-0.1-0.2-0.1-0.4-0.1-0.7
				c0-1.7,1.3-3,3-3c0.9,0,1.6,0.4,2.2,0.9c0.7-0.1,1.3-0.4,1.9-0.7c-0.2,0.7-0.7,1.3-1.3,1.7c0.6-0.1,1.2-0.2,1.7-0.5
				c-0.4,0.6-0.9,1.1-1.5,1.5c0,0.1,0,0.3,0,0.4C76.3,77.3,73.3,81.8,67.8,81.8"/>
		</g>
	</g>
	<path fill="#FFFFFF" d="M62.4,78.5l0.4-2.8H60V74c0-0.8,0.2-1.4,1.4-1.4l1.5,0v-2.5c-0.3,0-1.1-0.1-2.1-0.1c-2.1,0-3.6,1.3-3.6,3.7
		v2.1h-2.4v2.8h2.4v7.1H60v-7.1H62.4z"/>
	<path fill="#FFFFFF" d="M468.1,69.9c0,0-1.2,2.4-5.9,3.1c0,3.4,2.5,8.6,5.8,10C468.1,77.9,468.1,69.9,468.1,69.9z"/>
	<path fill="#FFFFFF" d="M469,69.9c0,0,1.2,2.4,5.9,3.1c0,3.4-2.5,8.6-5.8,10C469,77.9,469,69.9,469,69.9z"/>
	<g>
		<path fill="#CBCBCB" d="M445.5,84.4c0.9-0.8,1.4-1.9,1.4-3.1c0-2.4-2.1-4.4-4.8-4.4c-2.6,0-4.8,2-4.8,4.4c0,2.4,2.1,4.4,4.8,4.4
			c0.3,0,0.6,0,0.9-0.1l3.2,2.6L445.5,84.4z"/>
		<path fill="#CBCBCB" d="M435.9,81.2c0-3.2,2.8-5.8,6.2-5.8c0.2,0,0.4,0,0.6,0c-0.5-3.1-3.4-5.4-6.8-5.4c-3.8,0-6.9,2.9-6.9,6.4
			c0,1.8,0.8,3.4,2.1,4.6l-1,3.5l3.4-2.2c0.4,0.2,1.2,0.5,2.4,0.5c0.1,0,0.2,0,0.2,0C436,82.2,435.9,81.7,435.9,81.2z"/>
	</g>
	<path d="M526.5,70.5c-0.8-0.8-2-0.8-2.8,0l-6.2,5.8l-1.9-1.9c-0.8-0.8-2-0.8-2.8,0s-0.8,2,0,2.8l3.1,3.1c0.2,0.2,0.4,0.3,0.7,0.4
		c0.7,0.4,1.7,0.2,2.3-0.4l7.6-7.1C527.3,72.6,527.3,71.3,526.5,70.5z"/>
	<path fill="#FFFFFF" d="M596.8,78.6l-1.8,1.8l-1.8-1.8c-0.5-0.5-1.2-0.5-1.6,0c-0.5,0.5-0.5,1.2,0,1.6l1.8,1.8l-1.8,1.8
		c-0.5,0.5-0.5,1.2,0,1.6c0.5,0.5,1.2,0.5,1.6,0l1.8-1.8l1.8,1.8c0.5,0.5,1.2,0.5,1.6,0c0.5-0.5,0.5-1.2,0-1.6l-1.8-1.8l1.8-1.8
		c0.5-0.5,0.5-1.2,0-1.6C598,78.1,597.3,78.1,596.8,78.6z"/>
	<path fill="#FFFFFF" d="M599.3,70.7c-0.5-0.5-1.2-0.5-1.6,0l-3.6,3.4l-1.1-1.1c-0.5-0.5-1.2-0.5-1.6,0c-0.5,0.5-0.5,1.2,0,1.6
		l1.8,1.8c0.1,0.1,0.2,0.2,0.4,0.3c0.4,0.2,1,0.1,1.3-0.2l4.4-4.1C599.8,71.8,599.8,71.1,599.3,70.7z"/>
	<path fill="#FFFFFF" d="M616,70.5c-0.5,0.5-0.5,1.4,0,2l7.5,7.5l-7.6,7.6c-0.5,0.5-0.5,1.4,0,2c0.5,0.5,1.4,0.5,2,0l8.2-8.2
		c0.1-0.1,0.3-0.1,0.4-0.3c0.5-0.5,0.5-1.4,0-2l-8.5-8.5C617.4,69.9,616.5,69.9,616,70.5z"/>
	<path fill="#FFFFFF" d="M633.1,70c-2.6,0-4.7,2.1-4.7,4.7c0,1,0.3,2,0.9,2.8l3.7,6.7l3.8-6.7c0.6-0.8,0.9-1.7,0.9-2.8
		C637.8,72.1,635.7,70,633.1,70z M633.1,76.4c-0.9,0-1.7-0.8-1.7-1.7c0-0.9,0.8-1.7,1.7-1.7s1.7,0.8,1.7,1.7
		C634.8,75.6,634.1,76.4,633.1,76.4z"/>
	<path d="M655.4,78.2c0-0.9,2.6-1.6,2.6-4.4c0-2-1.6-2.9-1.6-2.9l1.4-0.1l1.3-0.8c0,0-1.5,0-4.5,0c-3,0-5.5,1.4-5.5,4.4
		c0,3.2,3,3.6,3.7,3.6c0.4,0,0.8-0.1,0.8-0.1s-0.3,0.3-0.3,1c0,0.4,0.1,0.9,0.7,1.4c-4.9,0-6,2.6-6,3.8c0,1.2,1,3.2,4.8,3.2
		c3.8,0,6-1.9,6-4.4C658.7,80.4,655.4,79.5,655.4,78.2z M653.9,77.3c-1.2,0-2.8-1.5-2.8-4c0-2.5,2-2.4,2-2.4c1.2,0,2.9,1.4,2.9,4
		C655.9,76.5,655,77.3,653.9,77.3z M653.9,86.3c-2.2,0-4-1-4-2.8c0-1.7,1.6-2.6,4.8-2.6c0,0,2.4,1.3,2.4,2.9S656.1,86.3,653.9,86.3z
		"/>
	<polygon points="666,77.2 663.7,77.2 663.7,74.9 662.5,74.9 662.5,77.2 660.2,77.2 660.2,78.4 662.5,78.4 662.5,80.7 663.7,80.7 
		663.7,78.4 666,78.4 	"/>
	<path fill="#FFFFFF" d="M408,90c-9.4,0-17,7.6-17,17c0,9.4,7.6,17,17,17s17-7.6,17-17C425,97.6,417.4,90,408,90z M398.4,109.5h-2.5
		v-4.4h2.5V109.5z M403.6,112.2c0,0.3-0.2,0.6-0.6,0.6h-3.3c-0.3,0-0.6-0.2-0.6-0.6v-10.1c0-0.3,0.2-0.6,0.6-0.6h3.3
		c0.3,0,0.6,0.2,0.6,0.6V112.2z M411.8,108.4h-7.3v-2.2h7.3V108.4z M417,112.2c0,0.3-0.2,0.6-0.6,0.6h-3.3c-0.3,0-0.6-0.2-0.6-0.6
		v-10.1c0-0.3,0.2-0.6,0.6-0.6h3.3c0.3,0,0.6,0.2,0.6,0.6V112.2z M417.8,109.5v-4.4h2.5v4.4H417.8z"/>
	<path d="M646.5,79l0.4-2.8h-2.8v-1.8c0-0.8,0.2-1.4,1.4-1.4l1.5,0v-2.5c-0.3,0-1.1-0.1-2.1-0.1c-2.1,0-3.6,1.3-3.6,3.7v2.1h-2.4V79
		h2.4v7.1h2.9V79H646.5z"/>
	<path fill="#1CAFF6" d="M674.1,77.9l-5,5c-0.6,0.6-0.6,1.6,0,2.3c0.6,0.6,1.6,0.6,2.3,0l6.1-6.1c0.3-0.3,0.5-0.7,0.5-1.1
		c0-0.4-0.2-0.8-0.5-1.1l-6.1-6.1c-0.6-0.6-1.6-0.6-2.3,0c-0.6,0.6-0.6,1.6,0,2.3L674.1,77.9z"/>
	<path fill="#CBCBCB" d="M684.1,77.9l-5,5c-0.6,0.6-0.6,1.6,0,2.3c0.6,0.6,1.6,0.6,2.3,0l6.1-6.1c0.3-0.3,0.5-0.7,0.5-1.1
		c0-0.4-0.2-0.8-0.5-1.1l-6.1-6.1c-0.6-0.6-1.6-0.6-2.3,0c-0.6,0.6-0.6,1.6,0,2.3L684.1,77.9z"/>
	<path fill="#FFFFFF" d="M694.1,77.9l-5,5c-0.6,0.6-0.6,1.6,0,2.3c0.6,0.6,1.6,0.6,2.3,0l6.1-6.1c0.3-0.3,0.5-0.7,0.5-1.1
		c0-0.4-0.2-0.8-0.5-1.1l-6.1-6.1c-0.6-0.6-1.6-0.6-2.3,0c-0.6,0.6-0.6,1.6,0,2.3L694.1,77.9z"/>
	<g>
		<g>
			<polygon fill="#D33131" points="722.6,70 728.9,73.7 728.9,84.3 722.6,88 716.2,84.3 716.2,73.7 			"/>
		</g>
		<polygon fill="#F93D3D" points="722.6,70 722.6,70 716.2,73.7 718.9,75.9 722.6,74.7 		"/>
		<polygon fill="#AF2828" points="722.6,88 722.6,88 728.9,84.3 726.3,82 722.6,83.3 		"/>
		<polygon fill="#E83838" points="722.6,73.8 726.3,75.9 726.3,82.1 722.6,84.2 718.9,82.1 718.9,75.9 		"/>
		<g>
			<path fill="#FFFFFF" d="M719.3,77.6C719.3,77.6,719.2,77.6,719.3,77.6c-0.4-0.9-1.1-1.6-1.9-1.9c0,0,0,0,0-0.1s0,0,0-0.1
				c0.8-0.3,1.5-1,1.8-1.9c0,0,0,0,0.1,0s0,0,0.1,0c0.3,0.8,1,1.5,1.8,1.9c0,0,0,0,0,0.1s0,0,0,0.1
				C720.3,76.1,719.7,76.8,719.3,77.6C719.3,77.6,719.3,77.6,719.3,77.6z"/>
			<path fill="#FFFFFF" d="M719.3,73.8c0.3,0.9,1,1.5,1.9,1.9c-0.8,0.4-1.5,1-1.9,1.9c-0.3-0.9-1-1.5-1.9-1.9
				C718.3,75.3,718.9,74.7,719.3,73.8 M719.3,73.7c0,0-0.1,0-0.1,0.1c-0.3,0.8-1,1.5-1.8,1.8c0,0-0.1,0.1-0.1,0.1s0,0.1,0.1,0.1
				c0.8,0.3,1.5,1,1.8,1.8c0,0,0.1,0.1,0.1,0.1l0,0c0,0,0.1,0,0.1-0.1c0.3-0.8,1-1.5,1.8-1.8c0,0,0.1-0.1,0.1-0.1s0-0.1-0.1-0.1
				c-0.8-0.3-1.5-1-1.8-1.8C719.4,73.7,719.3,73.7,719.3,73.7L719.3,73.7z"/>
		</g>
		<polygon opacity="0.3" fill="#F77F7F" points="724,74.6 718.9,79.7 718.9,82.1 719.5,82.4 726.1,75.8 		"/>
		<polygon opacity="0.3" fill="#F77F7F" points="721.3,83.5 726.3,78.5 726.3,76.8 720.2,82.9 		"/>
	</g>
	<g>
		<path fill="#CBCBCB" d="M767.5,71.5v8h-8.9v-8H767.5 M768.5,70h-10.9c-0.3,0-0.5,0.2-0.5,0.5v10c0,0.3,0.2,0.5,0.5,0.5h10.9
			c0.3,0,0.5-0.2,0.5-0.5v-10C769,70.2,768.8,70,768.5,70L768.5,70z"/>
		<rect x="759.6" y="72.8" fill="#CBCBCB" width="1.8" height="1.2"/>
		<rect x="764.6" y="72.8" fill="#CBCBCB" width="1.8" height="1.2"/>
		<rect x="762.1" y="72.8" fill="#CBCBCB" width="1.8" height="1.2"/>
		<rect x="759.6" y="76.8" fill="#CBCBCB" width="1.8" height="1.2"/>
		<rect x="764.6" y="76.8" fill="#CBCBCB" width="1.8" height="1.2"/>
		<rect x="762.1" y="76.8" fill="#CBCBCB" width="1.8" height="1.2"/>
		<rect x="759.6" y="74.8" fill="#CBCBCB" width="1.8" height="1.2"/>
		<rect x="764.6" y="74.8" fill="#CBCBCB" width="1.8" height="1.2"/>
		<rect x="762.1" y="74.8" fill="#CBCBCB" width="1.8" height="1.2"/>
	</g>
	<polygon fill="#CBCBCB" points="750,75.1 750,70.9 747.9,70.9 747.9,75.1 744.8,75.1 749,79.2 753.2,75.1 	"/>
	<rect x="743" y="81.1" fill="#CBCBCB" width="12" height="1.9"/>
	<g>
		<path d="M607.5,72c3.1,0,5.6,2.5,5.6,5.6c0,3.1-2.5,5.6-5.6,5.6c-3.1,0-5.6-2.5-5.6-5.6C601.9,74.5,604.4,72,607.5,72 M607.5,70
			c-4.2,0-7.6,3.4-7.6,7.6s3.4,7.6,7.6,7.6s7.6-3.4,7.6-7.6S611.7,70,607.5,70L607.5,70z"/>
		<polygon points="611.1,79.6 608,77.4 608,73.7 606.6,73.7 606.6,78.2 606.6,78.2 610.2,80.8 		"/>
	</g>
	<g>
		<path fill="#FFFFFF" d="M707.5,72c3.1,0,5.6,2.5,5.6,5.6c0,3.1-2.5,5.6-5.6,5.6c-3.1,0-5.6-2.5-5.6-5.6
			C701.9,74.5,704.4,72,707.5,72 M707.5,70c-4.2,0-7.6,3.4-7.6,7.6s3.4,7.6,7.6,7.6s7.6-3.4,7.6-7.6S711.7,70,707.5,70L707.5,70z"/>
		<polygon fill="#FFFFFF" points="711.1,79.6 708,77.4 708,73.7 706.6,73.7 706.6,78.2 706.6,78.2 710.2,80.8 		"/>
	</g>
	<polygon fill="#FFFFFF" points="557.3,71 557.3,70 553.2,70 553.2,71 549.3,71 549.3,72.1 561.3,72.1 561.3,71 	"/>
	<path fill="#FFFFFF" d="M549.3,73l2,12h8l2-12H549.3z M553.6,83.5c-0.3,0-0.5-0.2-0.5-0.4l-1-8.5c0-0.3,0.2-0.5,0.4-0.5
		c0.3,0,0.5,0.2,0.5,0.4l1,8.5C554.1,83.2,553.9,83.5,553.6,83.5z M557.5,83.1c0,0.3-0.3,0.5-0.5,0.4c-0.3,0-0.5-0.3-0.4-0.5l1-8.5
		c0-0.3,0.3-0.5,0.5-0.4c0.3,0,0.5,0.3,0.4,0.5L557.5,83.1z"/>
	<polygon points="545.1,71 545.1,70 540.9,70 540.9,71 537,71 537,72.1 549,72.1 549,71 	"/>
	<path d="M537.1,73l2,12h8l2-12H537.1z M541.3,83.5c-0.3,0-0.5-0.2-0.5-0.4l-1-8.5c0-0.3,0.2-0.5,0.4-0.5c0.3,0,0.5,0.2,0.5,0.4
		l1,8.5C541.8,83.2,541.6,83.5,541.3,83.5z M545.2,83.1c0,0.3-0.3,0.5-0.5,0.4c-0.3,0-0.5-0.3-0.4-0.5l1-8.5c0-0.3,0.3-0.5,0.5-0.4
		c0.3,0,0.5,0.3,0.4,0.5L545.2,83.1z"/>
	<path fill="#FFFFFF" d="M532.6,77.3c3.9-2.2,3.4-5.1,3.4-5.1h-7c0,1.5,0.5,3.3,3.3,5.1c-3.9,2.2-3.4,5.1-3.4,5.1h7
		C535.9,80.8,535.5,79,532.6,77.3z"/>
	<rect x="528" y="70.6" fill="#FFFFFF" width="8.9" height="1.1"/>
	<rect x="528" y="83.1" fill="#FFFFFF" width="8.9" height="1.1"/>
	<path fill="#CBCBCB" d="M740.7,72.1c-0.5-0.5-1.1-0.8-1.8-0.8c-0.7,0-1.3,0.3-1.8,0.8l-1.1,1.1c-0.5,0.5-0.8,1.1-0.8,1.8
		c0,0.5,0.1,0.9,0.4,1.3l-0.2,0.2c-0.4-0.2-0.8-0.3-1.2-0.3c-0.7,0-1.3,0.3-1.8,0.8l-1.1,1.1c-0.5,0.5-0.8,1.1-0.8,1.8
		s0.3,1.3,0.8,1.8c0.5,0.5,1.1,0.8,1.8,0.8c0.7,0,1.3-0.3,1.8-0.8l1.1-1.1c0.5-0.5,0.8-1.1,0.8-1.8c0-0.4-0.1-0.8-0.3-1.2l0.3-0.3
		c0.3,0.2,0.7,0.3,1.1,0.3c0.7,0,1.3-0.3,1.8-0.8l1.1-1.1c0.5-0.5,0.8-1.1,0.8-1.8S741.2,72.6,740.7,72.1z M735.1,79.7l-1.1,1.1
		c-0.5,0.5-1.4,0.5-1.9,0c-0.3-0.3-0.4-0.6-0.4-1s0.1-0.7,0.4-1l1.1-1.1c0.3-0.3,0.6-0.4,1-0.4c0.1,0,0.2,0,0.3,0l-1.2,1.2
		c-0.3,0.3-0.3,0.7,0,1l0.1,0.1c0.3,0.3,0.7,0.3,1,0l1.2-1.2C735.5,79,735.4,79.4,735.1,79.7z M739.8,74.9l-1.1,1.1
		c-0.3,0.3-0.7,0.4-1,0.4l1.2-1.2c0.3-0.3,0.3-0.7,0-1l-0.1-0.1c-0.3-0.3-0.7-0.3-1,0l-1.3,1.3c-0.1-0.5,0-1,0.3-1.3l1.1-1.1
		c0.3-0.3,0.6-0.4,1-0.4c0.4,0,0.7,0.1,1,0.4c0.3,0.3,0.4,0.6,0.4,1S740,74.6,739.8,74.9z"/>
	<g>
		<rect x="502" y="78" fill="#FFFFFF" width="4" height="8.1"/>
		<rect x="502" y="70" fill="#FFFFFF" width="4" height="1.1"/>
		<path fill="#FFFFFF" d="M507.1,75.8c0.4,0.8,1.5,1.2,1.5,1.2h2.4v-4.9c0,0-0.9,0-1.9,0c-1,0-2,1-2,1l-0.1-1c0,0-1.7,0-5.3,0
			s-4.5,4.7-4.5,4.7c1.1-0.8,1.6-1.2,3.2-1.2c1.6,0,1.7,0.5,1.7,0.8c0,0.1,0,0.6,0,0.6h4l0.5-1.2L507.1,75.8z"/>
	</g>
	<path fill="#FFFFFF" stroke="#231F20" stroke-width="3" stroke-miterlimit="10" stroke-opacity="8.000000e-02" d="M82.3,93
		C70,93,60,101.2,60,111.3c0,6.1,3.6,11.4,9.1,14.8v0.2c0,6.6-8,8.4-2.4,8.4c5.2,0,10-3.6,11.1-5.4c1.5,0.2,3,0.4,4.5,0.4
		c12.3,0,22.3-8.2,22.3-18.3C104.7,101.1,94.7,93,82.3,93z"/>
	<path fill="#FFFFFF" d="M600,41c-6.6,0-12,5.4-12,12c0,6.6,5.4,12,12,12c6.6,0,12-5.4,12-12C612,46.4,606.6,41,600,41z M605.5,54.9
		h-3.3v3.3c0,1.2-0.9,2.1-2.1,2.1s-2.1-0.9-2.1-2.1v-3.3h-3.3c-1.2,0-2.1-0.9-2.1-2.1c0-1.2,0.9-2.1,2.1-2.1h3.3v-3.3
		c0-1.2,0.9-2.1,2.1-2.1s2.1,0.9,2.1,2.1v3.3h3.3c1.2,0,2.1,0.9,2.1,2.1C607.6,54,606.6,54.9,605.5,54.9z"/>
	<g>
		<path fill="#E2E2E2" d="M775,80c-1.4-0.1-2.4-1.3-2.4-2.7c0-1.5,1.2-2.7,2.7-2.7h1.5v-2.5h-1.5c-2.9,0-5.2,2.3-5.2,5.2
			c0,2.8,2.2,5.1,5,5.2v2.3l3.6-3.6l-3.6-3.6V80z"/>
		<path fill="#E2E2E2" d="M781.8,72.1h-0.3v-2.2l-3.6,3.6l3.6,3.6v-2.4h0.3c1.5,0,2.7,1.2,2.7,2.7c0,1.5-1.2,2.7-2.7,2.7h-1.9v2.5
			h1.9c2.9,0,5.2-2.3,5.2-5.2C787,74.4,784.7,72.1,781.8,72.1z"/>
	</g>
	<path d="M794.4,81.4c-1.6,0-3.1-0.5-4.4-1.3c0.2,0,0.5,0,0.7,0c1.3,0,2.6-0.5,3.6-1.2c-1.3,0-2.3-0.9-2.7-2c0.2,0,0.4,0.1,0.5,0.1
		c0.3,0,0.5,0,0.8-0.1c-1.3-0.3-2.3-1.4-2.3-2.8c0,0,0,0,0,0c0.4,0.2,0.8,0.3,1.3,0.4c-0.8-0.5-1.3-1.4-1.3-2.4c0-0.5,0.1-1,0.4-1.4
		c1.4,1.7,3.5,2.9,5.9,3c0-0.2-0.1-0.4-0.1-0.7c0-1.6,1.3-2.9,2.9-2.9c0.8,0,1.6,0.3,2.1,0.9c0.7-0.1,1.3-0.4,1.8-0.7
		c-0.2,0.7-0.7,1.2-1.3,1.6c0.6-0.1,1.1-0.2,1.7-0.5c-0.4,0.6-0.9,1.1-1.4,1.5c0,0.1,0,0.2,0,0.4C802.6,77,799.7,81.4,794.4,81.4"/>
	<path fill="#93CC17" d="M707.2,114.2l-7-24l-23.6,8.3l8.9,4.6c-8,12.1-21,19-33.6,18.5c16.6,8.4,36.5,3.2,46.9-11.6L707.2,114.2z"
		/>
	<path fill="none" stroke="#A5D20C" stroke-width="3" stroke-miterlimit="10" d="M254.4,203.2c-14,0-25.3-11.3-25.3-25.3
		c0-14,11.3-25.3,25.3-25.3s25.3,11.3,25.3,25.3"/>
	<path fill="none" stroke="#D6D6D6" stroke-width="3" stroke-miterlimit="10" d="M314.4,203.2c-14,0-25.3-11.3-25.3-25.3
		c0-14,11.3-25.3,25.3-25.3c14,0,25.3,11.3,25.3,25.3"/>
	<path fill="none" stroke="#BABABA" stroke-width="2" stroke-miterlimit="10" d="M361,166.8c0-2.2,0.8-3.5,2.2-4.9l-0.1,0.1
		c0.9-1.1,1.5-2.5,1.5-4.1c0-3.6-2.8-6.5-6.4-6.5c-3.6,0-6.5,2.8-6.5,6.4c0,1.8,0.7,3.5,1.9,4.7c1,1.2,1.5,2.2,1.5,4.2"/>
	<line fill="none" stroke="#BABABA" stroke-width="2" stroke-miterlimit="10" x1="354.1" y1="168.8" x2="361.7" y2="168.8"/>
	<line fill="none" stroke="#BABABA" stroke-width="2" stroke-miterlimit="10" x1="355.1" y1="171.9" x2="360.7" y2="171.9"/>
	<line fill="none" stroke="#BABABA" stroke-width="2" stroke-miterlimit="10" x1="389.7" y1="154.5" x2="374.1" y2="170.1"/>
	<line fill="none" stroke="#BABABA" stroke-width="2" stroke-miterlimit="10" x1="374.1" y1="154.5" x2="389.7" y2="170.1"/>
	<circle fill="#93CC17" cx="485.3" cy="186.6" r="37.2"/>
	<path fill="#FFB094" d="M466.7,216.7c0.4-0.8,1.1-1.3,2.1-1.2c3,0.4,5.5,2.3,8.1,3.7h3.3c0.4-1.1,1.1-2,2.4-2.3
		c1.4-0.3,2.9,0,4.3,0.4c2.5-1.2,5.5-1.9,7.9-1.8c0.4,0,0.7,0.1,1,0.3c0.4,0.1,0.8,0.1,1.2,0.2c1.7-0.5,3.4-0.9,5.3-0.9
		c0.4,0,0.7,0.1,1,0.2c0.4-0.4,0.9-0.7,1.5-0.7v-34c0-10.7-8.7-19.4-19.4-19.4h0c-10.7,0-19.4,8.7-19.4,19.4v35.5
		C466.3,216.3,466.5,216.5,466.7,216.7z"/>
	<path fill="#FFFFFF" d="M509,191.4l-24,7.6l-24-7.6h-12.7c0.1,0.5,0.1,0.9,0.2,1.3c0,0,0,0,0.1,0.1l0.6,0.6
		c0.7,0.7,0.9,1.5,0.7,2.3c2.7,6.9,6.9,12.8,12,17.9c2,1.4,4,3,6,4.5c0.8,0.3,1.5,0.6,2.3,0.8c0.2,0,0.4,0,0.6,0
		c10.8,2.1,21.5-0.7,30.9-6.1c6.8-3.9,16.2-9.7,17.6-18.1c0.2-1.3,1.4-1.9,2.5-1.8c0.1-0.5,0.2-1,0.2-1.6H509z"/>
	<path fill="#00AAFF" d="M522.2,191.7l-37.2,11.6l-36.6-11.7c2.5,18.2,18.1,32.2,36.9,32.2C504.2,223.8,519.7,209.8,522.2,191.7z"/>
	<path opacity="0.19" d="M485.3,223.8c18.8,0,34.4-14,36.9-32.1l-37.2,11.6l0,0v20.5C485.2,223.8,485.2,223.8,485.3,223.8z"/>
	<path fill="#88C11A" d="M505.4,207.3c-2,1.5-4.8,1.2-6.3-0.8c-1.5-2-1.2-4.8,0.8-6.3"/>
	<rect x="505.4" y="203" fill="#774335" width="1.5" height="6.2"/>
	<circle fill="#934928" cx="485.2" cy="160.1" r="8.2"/>
	<path fill="#AD582D" d="M485.4,159.6L485.4,159.6c-11,0-20.1,8.6-20.9,19.3c0.1,0,0.2,0,0.3,0c8.4,0,15.8-4,20.4-10.3
		c4.6,6.2,12.1,10.3,20.4,10.3c0.3,0,0.5,0,0.7,0C505.5,168.1,496.4,159.6,485.4,159.6z"/>
	<path fill="#CC2F2F" d="M505.9,207.3c-2.8,0-13.2-4.8-11.8,7.9c0.3,2.5,1.2,4.9,2.5,6.8c8-2.5,14.9-7.7,19.5-14.5
		C513.3,205.2,507.9,207.3,505.9,207.3z"/>
	<circle opacity="0.7" fill="#FFFFFF" cx="499.5" cy="211.7" r="2.2"/>
	<circle opacity="0.28" fill="#FFFFFF" cx="494" cy="185.6" r="6"/>
	<circle opacity="0.28" fill="#FFFFFF" cx="476.1" cy="185.6" r="6"/>
	<path opacity="0.39" fill="#FFFFFF" d="M476.1,179.5c-3.3,0-6,2.7-6,6c0,1.8,0.8,3.3,2,4.4l8.5-8.5
		C479.4,180.3,477.9,179.5,476.1,179.5z"/>
	<path opacity="0.39" fill="#FFFFFF" d="M494,179.5c-3.3,0-6,2.7-6,6c0,1.8,0.8,3.3,2,4.4l8.5-8.5
		C497.4,180.3,495.8,179.5,494,179.5z"/>
	<path fill="#7F3F22" d="M504.8,184.9h-3.9c-0.4-3.5-3.3-6.3-6.9-6.3c-3.2,0-5.9,2.2-6.7,5.1c-0.6-0.5-1.4-0.8-2.2-0.8
		c-0.8,0-1.6,0.3-2.2,0.8c-0.8-3-3.5-5.1-6.7-5.1c-3.6,0-6.6,2.7-6.9,6.3H466v1.4h3.2c0.4,3.5,3.3,6.3,6.9,6.3
		c3.6,0,6.5-2.7,6.9-6.2h0c0-1.1,0.9-2,2-2s2,0.9,2,2h0c0.4,3.5,3.3,6.2,6.9,6.2c3.6,0,6.6-2.7,6.9-6.3h3.9V184.9z M476.2,191.1
		c-3.1,0-5.5-2.5-5.5-5.5c0-3.1,2.5-5.5,5.5-5.5c3.1,0,5.5,2.5,5.5,5.5c0,0.1,0,0.3,0,0.4c0,0.1,0,0.1,0,0.2
		C481.4,189,479,191.1,476.2,191.1z M494,191.1c-2.9,0-5.2-2.2-5.5-5c0-0.1,0-0.1,0-0.2c0-0.1,0-0.3,0-0.4c0-3.1,2.5-5.5,5.5-5.5
		c3.1,0,5.5,2.5,5.5,5.5C499.5,188.6,497.1,191.1,494,191.1z"/>
	<polygon fill="#D6D6D6" points="324.7,174.3 317.4,174.3 317.4,162.1 305.5,179.8 312.8,179.8 312.8,192 	"/>
	<polygon fill="#A5D20C" points="264.7,174.3 257.4,174.3 257.4,162.1 245.5,179.8 252.8,179.8 252.8,192 	"/>
	<path opacity="0.65" fill="#7AC70C" d="M410.2,195.2c0-6.4-6.4-11.6-14.4-11.6c-8,0-14.4,5.2-14.4,11.6c0,4.9,3.8,9.1,9.1,10.8
		c-0.9,1.6-2.2,3-3.6,4.2c0.5,0,1,0,1.6-0.1c3.2-0.3,6-1.5,8.3-3.3C404.3,206.4,410.2,201.4,410.2,195.2z"/>
	<path opacity="0.35" fill="#EC0A1B" d="M379.2,195.2c0-6.4-6.4-11.6-14.4-11.6c-8,0-14.4,5.2-14.4,11.6c0,4.9,3.8,9.1,9.1,10.8
		c-0.9,1.6-2.2,3-3.6,4.2c0.5,0,1,0,1.6-0.1c3.2-0.3,6-1.5,8.3-3.3C373.3,206.4,379.2,201.4,379.2,195.2z"/>
	<rect x="396.8" y="152.6" opacity="0.35" fill="#EC0A1B" width="2.1" height="21.8"/>
	<rect x="406.4" y="155.6" opacity="0.35" fill="#EC0A1B" width="8.7" height="13.8"/>
	<polygon opacity="0.35" fill="#EC0A1B" points="405.6,154.8 405.7,154.8 406.4,154.8 409.4,154.8 409.4,152.6 400.7,152.6 
		400.7,166.5 405.6,166.5 	"/>
	<rect x="419.8" y="152.6" opacity="0.65" fill="#7AC70C" width="2.1" height="21.8"/>
	<rect x="429.4" y="155.6" opacity="0.65" fill="#7AC70C" width="8.7" height="13.8"/>
	<polygon opacity="0.65" fill="#7AC70C" points="428.6,154.8 428.7,154.8 429.4,154.8 432.4,154.8 432.4,152.6 423.7,152.6 
		423.7,166.5 428.6,166.5 	"/>
	<path opacity="0.8" fill="#FFFFFF" d="M544.1,149.2c-9.5,0-17.3,7.7-17.3,17.3c0,9.5,7.7,17.3,17.3,17.3c9.5,0,17.3-7.7,17.3-17.3
		C561.3,156.9,553.6,149.2,544.1,149.2z M546.6,177.3h-5.5v-2h5.5V177.3z M547.7,174.3h-7.7v-2h7.7V174.3z M549.9,167.1
		c-1.1,1.1-1.9,2.2-1.9,4.2h-2c0-2.2,0.7-3.8,2.3-5.4c0.8-1,1.2-2.2,1.2-3.4c0-3-2.4-5.5-5.4-5.5c-1.4,0-2.8,0.5-3.9,1.6
		c-1,1-1.6,2.4-1.6,3.8c0,1.5,0.6,2.9,1.6,3.9l0.1,0.1c1.1,1.4,1.7,2.6,1.7,4.9h-2c0-1.6-0.4-2.4-1.3-3.6c-1.4-1.4-2.2-3.3-2.2-5.3
		c0-2,0.8-3.9,2.2-5.3c1.4-1.4,3.3-2.2,5.3-2.1c2,0,3.9,0.8,5.3,2.2c1.4,1.4,2.2,3.3,2.1,5.3C551.5,164.1,550.9,165.8,549.9,167.1
		L549.9,167.1z"/>
	<rect x="539.5" y="90.5" fill="#B7B7B7" width="35" height="35"/>
	<rect x="576.5" y="90.5" fill="#B7B7B7" width="35" height="35"/>
	<rect x="613.5" y="90.5" fill="#B7B7B7" width="35" height="35"/>
	<path fill="#FFFFFF" d="M562.3,97.4c0,0-1.5-0.3-2.9-0.1s-4,1.1-4,4.7v3h-2.7v3.6h2.7V119h3.4v-10.4h3.3l0.2-3.6h-3.5
		c0,0,0-1.8,0-2.6c0-0.8,0-1.6,2.1-1.6h1.2L562.3,97.4z"/>
	<rect x="586.3" y="103.9" fill="#FFFFFF" width="3.7" height="11.8"/>
	<circle fill="#FFFFFF" cx="588.1" cy="100.2" r="2.1"/>
	<rect x="592.1" y="103.9" fill="#FFFFFF" width="3.7" height="11.8"/>
	<path fill="#FFFFFF" d="M599.4,103.6c2.2,0,4.1,1.8,4.1,5.2c0,3.4,0,6.9,0,6.9h-3.7v-6.4c0,0,0.1-2.6-2-2.6s-1.9,2.6-1.9,3.4
		c0,0.9-1.4-0.9-1.4-0.9l1.2-3.1C595.6,106.1,596.3,103.6,599.4,103.6z"/>
	<path fill="#FFFFFF" d="M461.3,40.4c0,0-1.5-0.3-2.9-0.1s-4,1.1-4,4.7v3h-2.7v3.6h2.7V62h3.4V51.6h3.3l0.2-3.6h-3.5
		c0,0,0-1.8,0-2.6c0-0.8,0-1.6,2.1-1.6h1.2L461.3,40.4z"/>
	<path fill="#F6AB00" d="M218.4,162.7c0,0,0-6.3-0.9-10.6c-28.4-4.3-37.5-11.6-38.8-12.7c0-0.1-0.2-0.1-0.2,0
		c-1.2,1.1-10.4,8.4-38.8,12.7c-0.9,4.2-0.9,10.6-0.9,10.6s-2.1,40,39.7,60.9c0,0,0,0,0,0c0,0,0,0,0,0c0,0,0,0,0,0c0,0,0,0,0,0
		C220.4,202.6,218.4,162.7,218.4,162.7z"/>
	<path fill="#F6BB03" d="M178.6,223.6v-84.3c0,0-0.1,0-0.1,0.1c-1.2,1.1-10.4,8.4-38.8,12.7c-0.9,4.2-0.9,10.6-0.9,10.6
		S136.8,202.6,178.6,223.6C178.6,223.6,178.6,223.6,178.6,223.6C178.6,223.6,178.6,223.6,178.6,223.6z"/>
	<path fill="#5FA8DC" d="M359.2,81.6c-1.6,0-3.1-0.5-4.3-1.3c0.2,0,0.4,0,0.7,0c1.3,0,2.5-0.4,3.5-1.2c-1.2,0-2.3-0.8-2.6-1.9
		c0.2,0,0.3,0.1,0.5,0.1c0.3,0,0.5,0,0.7-0.1c-1.3-0.3-2.3-1.4-2.3-2.8c0,0,0,0,0,0c0.4,0.2,0.8,0.3,1.3,0.4
		c-0.8-0.5-1.2-1.4-1.2-2.3c0-0.5,0.1-1,0.4-1.4c1.4,1.7,3.5,2.8,5.8,2.9c0-0.2-0.1-0.4-0.1-0.6c0-1.5,1.3-2.8,2.8-2.8
		c0.8,0,1.5,0.3,2,0.9c0.6-0.1,1.2-0.4,1.8-0.7c-0.2,0.7-0.7,1.2-1.2,1.6c0.6-0.1,1.1-0.2,1.6-0.4c-0.4,0.6-0.9,1.1-1.4,1.5
		c0,0.1,0,0.2,0,0.4C367.1,77.3,364.3,81.6,359.2,81.6"/>
	<g>
		<path fill="#1CB0F6" d="M510.4,119.5c0.8,1,2.2,1.6,3.6,1.4c1.5-0.2,2.7-1.1,3.2-2.3c-0.8-1-2.2-1.6-3.6-1.4
			S510.9,118.3,510.4,119.5z"/>
		<path fill="#1CB0F6" d="M505.2,114c0.4,1.2,1.4,2.3,2.8,2.7s2.9,0,3.8-0.9c-0.4-1.2-1.4-2.3-2.8-2.7
			C507.5,112.7,506.1,113.1,505.2,114z"/>
		<path fill="#1CB0F6" d="M503.6,105.9c-0.5,1.2-0.3,2.7,0.6,3.9c0.9,1.2,2.3,1.8,3.5,1.6c0.5-1.2,0.3-2.7-0.6-3.9
			C506.3,106.3,504.9,105.8,503.6,105.9z"/>
		<path fill="#1CB0F6" d="M530.3,119.5c-0.8,1-2.2,1.6-3.6,1.4s-2.7-1.1-3.2-2.3c0.8-1,2.2-1.6,3.6-1.4
			C528.6,117.4,529.8,118.3,530.3,119.5z"/>
		<path fill="#1CB0F6" d="M535.6,114c-0.4,1.2-1.4,2.3-2.8,2.7s-2.9,0-3.8-0.9c0.4-1.2,1.4-2.3,2.8-2.7
			C533.3,112.7,534.7,113.1,535.6,114z"/>
		<path fill="#1CB0F6" d="M537.1,105.9c0.5,1.2,0.3,2.7-0.6,3.9c-0.9,1.2-2.3,1.8-3.5,1.6c-0.5-1.2-0.3-2.7,0.6-3.9
			S535.8,105.8,537.1,105.9z"/>
		<g>
			<path fill="#1CB0F6" d="M505.2,114c0.4,1.2,1.4,2.3,2.8,2.7s2.9,0,3.8-0.9c-0.4-1.2-1.4-2.3-2.8-2.7
				C507.5,112.7,506.1,113.1,505.2,114z"/>
		</g>
		<g>
			<path fill="#1CB0F6" d="M503.6,105.9c-0.5,1.2-0.3,2.7,0.6,3.9c0.9,1.2,2.3,1.8,3.5,1.6c0.5-1.2,0.3-2.7-0.6-3.9
				C506.3,106.3,504.9,105.8,503.6,105.9z"/>
		</g>
		<g>
			<path fill="#1CB0F6" d="M537.1,105.9c0.5,1.2,0.3,2.7-0.6,3.9c-0.9,1.2-2.3,1.8-3.5,1.6c-0.5-1.2-0.3-2.7,0.6-3.9
				S535.8,105.8,537.1,105.9z"/>
		</g>
		<path fill="#1CB0F6" d="M509.2,94v11.2c0,6.1,5,11.1,11.1,11.1l0,0c6.1,0,11.1-5,11.1-11.1V94H509.2z M524.6,105.8
			c0.3-0.5,0.7-0.8,1.2-0.7c0.5,0.2,0.8,0.7,0.7,1.2c-0.8,2.5-3.1,4.2-5.7,4.2c-3.3,0-6-2.7-6-6c0-1.1,0.3-2.2,0.9-3.2
			c0.3-0.5,0.9-0.6,1.4-0.3c0.5,0.3,0.6,0.9,0.3,1.4c-0.4,0.6-0.6,1.4-0.6,2.1c0,2.2,1.8,4,4,4c0.2,0,0.4,0,0.6,0v-8.3h-0.8v5.1
			c0,0.1,0,0.2-0.1,0.3l-1.1,1.1c-0.1,0.1-0.2,0.1-0.3,0.1c-0.1,0-0.1,0-0.2,0c-0.2-0.1-0.3-0.2-0.3-0.4v-6.2h-2.1
			c-0.7,0-1.2,0.4-1.5,1c-0.2,0.4-0.5,0.6-0.9,0.6c-0.1,0-0.3,0-0.4-0.1c-0.5-0.2-0.8-0.8-0.5-1.3c0.6-1.4,1.9-2.2,3.3-2.2h9
			c0.6,0,1,0.4,1,1c0,0.6-0.4,1-1,1h-2.2v8.1C523.5,107.6,523.8,107.1,524.6,105.8z"/>
	</g>
	<g>
		<path fill="#FFFFFF" d="M622.9,117.6c0.6,0.8,1.8,1.3,2.9,1.1s2.2-0.9,2.6-1.8c-0.6-0.8-1.8-1.3-2.9-1.1
			C624.3,115.9,623.3,116.7,622.9,117.6z"/>
		<path fill="#FFFFFF" d="M618.7,113.2c0.3,1,1.1,1.9,2.3,2.2c1.2,0.3,2.3,0,3.1-0.7c-0.3-1-1.1-1.9-2.3-2.2
			C620.6,112.2,619.4,112.5,618.7,113.2z"/>
		<path fill="#FFFFFF" d="M617.4,106.6c-0.4,1-0.3,2.2,0.5,3.1s1.8,1.4,2.9,1.3c0.4-1,0.3-2.2-0.5-3.1
			C619.6,107,618.5,106.5,617.4,106.6z"/>
		<path fill="#FFFFFF" d="M639.1,117.7c-0.6,0.8-1.8,1.3-2.9,1.1s-2.2-0.9-2.6-1.8c0.6-0.8,1.8-1.3,2.9-1.1S638.7,116.7,639.1,117.7
			z"/>
		<path fill="#FFFFFF" d="M643.3,113.2c-0.3,1-1.1,1.9-2.3,2.2c-1.2,0.3-2.3,0-3.1-0.7c0.3-1,1.1-1.9,2.3-2.2
			C641.4,112.2,642.6,112.5,643.3,113.2z"/>
		<path fill="#FFFFFF" d="M644.6,106.6c0.4,1,0.3,2.2-0.5,3.1s-1.8,1.4-2.9,1.3c-0.4-1-0.3-2.2,0.5-3.1
			C642.4,107,643.5,106.5,644.6,106.6z"/>
		<g>
			<path fill="#FFFFFF" d="M618.7,113.2c0.3,1,1.1,1.9,2.3,2.2c1.2,0.3,2.3,0,3.1-0.7c-0.3-1-1.1-1.9-2.3-2.2
				C620.6,112.2,619.4,112.5,618.7,113.2z"/>
		</g>
		<g>
			<path fill="#FFFFFF" d="M617.4,106.6c-0.4,1-0.3,2.2,0.5,3.1s1.8,1.4,2.9,1.3c0.4-1,0.3-2.2-0.5-3.1
				C619.6,107,618.5,106.5,617.4,106.6z"/>
		</g>
		<g>
			<path fill="#FFFFFF" d="M644.6,106.6c0.4,1,0.3,2.2-0.5,3.1s-1.8,1.4-2.9,1.3c-0.4-1-0.3-2.2,0.5-3.1
				C642.4,107,643.5,106.5,644.6,106.6z"/>
		</g>
		<path fill="#FFFFFF" d="M622,97v9.1c0,5,4.1,9,9,9l0,0c5,0,9-4.1,9-9V97H622z M634.5,106.5c0.2-0.4,0.6-0.7,1-0.5
			c0.4,0.1,0.7,0.6,0.5,1c-0.6,2.1-2.5,3.4-4.6,3.4c-2.7,0-4.8-2.2-4.8-4.8c0-0.9,0.3-1.8,0.7-2.6c0.2-0.4,0.7-0.5,1.1-0.3
			c0.4,0.2,0.5,0.7,0.3,1.1c-0.3,0.5-0.5,1.1-0.5,1.7c0,1.8,1.4,3.2,3.2,3.2c0.2,0,0.3,0,0.5,0V102h-0.6v4.1c0,0.1,0,0.2-0.1,0.3
			l-0.9,0.9c-0.1,0.1-0.2,0.1-0.3,0.1c0,0-0.1,0-0.1,0c-0.1-0.1-0.2-0.2-0.2-0.3v-5h-1.7c-0.5,0-1,0.3-1.2,0.8
			c-0.1,0.3-0.4,0.5-0.7,0.5c-0.1,0-0.2,0-0.3-0.1c-0.4-0.2-0.6-0.6-0.4-1.1c0.5-1.1,1.5-1.8,2.7-1.8h7.3c0.4,0,0.8,0.4,0.8,0.8
			s-0.4,0.8-0.8,0.8h-1.8v6.6C633.6,108,633.8,107.6,634.5,106.5z"/>
	</g>
	<path id="White_2_" fill="#1CB0F6" d="M457,95.3h-21.4c-0.7,0-1.3,0.6-1.3,1.3v21.4c0,0.7,0.6,1.3,1.3,1.3h11.5v-9.3h-3.1v-3.6h3.1
		v-2.7c0-3.1,1.9-4.8,4.7-4.8c1.3,0,2.5,0.1,2.8,0.1v3.3l-1.9,0c-1.5,0-1.8,0.7-1.8,1.8v2.3h3.6l-0.5,3.6h-3.1v9.3h6.1
		c0.7,0,1.3-0.6,1.3-1.3V96.7C458.3,95.9,457.7,95.3,457,95.3z"/>
	<path fill="#1CB0F6" d="M494.6,94.4h-22.3c-1.1,0-1.9,0.8-1.9,1.9v22.4c0,1,0.9,1.9,1.9,1.9h22.3c1.1,0,1.9-0.8,1.9-1.9V96.3
		C496.6,95.2,495.7,94.4,494.6,94.4z M478.1,116.7h-3.9v-12.5h3.9V116.7z M476.2,102.5c-1.2,0-2.3-1-2.3-2.3c0-1.2,1-2.3,2.3-2.3
		c1.2,0,2.3,1,2.3,2.3C478.4,101.5,477.4,102.5,476.2,102.5z M492.7,116.7h-3.9v-6.1c0-1.5,0-3.3-2-3.3c-2,0-2.3,1.6-2.3,3.2v6.2
		h-3.9v-12.5h3.7v1.7h0.1c0.5-1,1.8-2,3.7-2c3.9,0,4.7,2.6,4.7,6V116.7z"/>
	<g>
		<path fill="#DCDCDC" d="M641.1,144v27.9c0,15.2-12.5,27.7-27.7,27.7h0c-15.2,0-27.7-12.5-27.7-27.7V144H641.1z"/>
		<path fill="#E7E7E7" d="M611.4,144l-13.2,13.2c-2.9,2.9-2.9,7.6,0,10.5c2.9,2.9,7.6,2.9,10.5,0l23.7-23.7H611.4z"/>
		<path fill="#E7E7E7" d="M603.2,197.6l37.9-37.9V144h0l-47.3,47.3C596.4,194,599.7,196.2,603.2,197.6z"/>
		<path fill="#C4C4C4" d="M638.1,147v24.9c0,13.6-11.1,24.7-24.7,24.7s-24.7-11.1-24.7-24.7V147H638.1 M641.1,144h-55.4v27.9
			c0,15.2,12.5,27.7,27.7,27.7h0c15.2,0,27.7-12.5,27.7-27.7V144L641.1,144z"/>
		<path fill="#7AC70C" d="M588.6,207.5c2,2.5,5.4,4,9.1,3.5s6.6-2.7,7.9-5.6c-2-2.5-5.4-4-9.1-3.5
			C592.8,202.3,589.8,204.5,588.6,207.5z"/>
		<path fill="#7AC70C" d="M575.5,193.9c0.9,3.1,3.5,5.7,7.1,6.7c3.6,1,7.2,0,9.4-2.2c-0.9-3.1-3.5-5.7-7.1-6.7
			C581.4,190.7,577.8,191.6,575.5,193.9z"/>
		<path fill="#7AC70C" d="M571.7,173.6c-1.2,3-0.8,6.6,1.4,9.6c2.2,3,5.6,4.4,8.8,4.1c1.2-3,0.8-6.6-1.4-9.6
			S574.9,173.3,571.7,173.6z"/>
		<path fill="#7AC70C" d="M638.2,207.6c-2,2.5-5.4,4-9.1,3.5s-6.6-2.7-7.9-5.6c2-2.5,5.4-4,9.1-3.5S636.9,204.6,638.2,207.6z"/>
		<path fill="#7AC70C" d="M651.4,193.9c-0.9,3.1-3.5,5.7-7.1,6.7c-3.6,1-7.2,0-9.4-2.2c0.9-3.1,3.5-5.7,7.1-6.7
			C645.5,190.7,649.1,191.6,651.4,193.9z"/>
		<path fill="#7AC70C" d="M655.1,173.6c1.2,3,0.8,6.6-1.4,9.6c-2.2,3-5.6,4.4-8.8,4.1c-1.2-3-0.8-6.6,1.4-9.6
			C648.5,174.8,651.9,173.3,655.1,173.6z"/>
		<path fill="#6EAA05" d="M597.8,203.7c2,0,3.9,0.7,5.3,1.9c-1.2,1.8-3.3,3.1-5.7,3.4c-0.4,0-0.7,0.1-1.1,0.1c-2,0-3.9-0.7-5.3-1.9
			c1.2-1.8,3.3-3.1,5.7-3.4C597.1,203.8,597.4,203.7,597.8,203.7 M597.8,201.7c-0.4,0-0.9,0-1.4,0.1c-3.7,0.5-6.6,2.7-7.9,5.6
			c1.7,2.2,4.6,3.6,7.7,3.6c0.4,0,0.9,0,1.4-0.1c3.7-0.5,6.6-2.7,7.9-5.6C603.8,203.1,601,201.7,597.8,201.7L597.8,201.7z"/>
		<path fill="#6EAA05" d="M582.2,193.3c0.8,0,1.5,0.1,2.2,0.3c2.3,0.6,4.2,2.1,5.2,4.1c-1.2,0.8-2.7,1.3-4.3,1.3
			c-0.8,0-1.5-0.1-2.2-0.3c-2.3-0.6-4.2-2.1-5.2-4.1C579.1,193.7,580.6,193.3,582.2,193.3 M582.2,191.3c-2.6,0-5,1-6.7,2.6
			c0.9,3.1,3.5,5.7,7.1,6.7c0.9,0.2,1.9,0.4,2.8,0.4c2.6,0,5-1,6.7-2.6c-0.9-3.1-3.5-5.7-7.1-6.7C584,191.4,583.1,191.3,582.2,191.3
			L582.2,191.3z"/>
		<path fill="#6EAA05" d="M573.2,175.6c2.2,0.2,4.3,1.4,5.7,3.3c1.4,1.9,2,4.3,1.5,6.4c-2.2-0.2-4.3-1.4-5.7-3.3
			C573.3,180.1,572.7,177.7,573.2,175.6 M572.6,173.6c-0.3,0-0.6,0-0.9,0c-1.2,3-0.8,6.6,1.4,9.6c2,2.7,5,4.2,7.9,4.2
			c0.3,0,0.6,0,0.9,0c1.2-3,0.8-6.6-1.4-9.6C578.5,175,575.5,173.6,572.6,173.6L572.6,173.6z"/>
		<path fill="#6EAA05" d="M629,203.8L629,203.8c0.4,0,0.7,0,1.1,0.1c2.4,0.3,4.5,1.5,5.7,3.4c-1.4,1.2-3.3,1.9-5.3,1.9
			c-0.4,0-0.7,0-1.1-0.1c-2.4-0.3-4.5-1.5-5.7-3.4C625.1,204.5,627,203.8,629,203.8 M629,201.8c-3.1,0-6,1.4-7.7,3.6
			c1.3,2.9,4.2,5.2,7.9,5.6c0.5,0.1,0.9,0.1,1.4,0.1c3.1,0,6-1.4,7.7-3.6c-1.3-2.9-4.2-5.2-7.9-5.6
			C629.9,201.9,629.4,201.8,629,201.8L629,201.8z"/>
		<path fill="#6EAA05" d="M644.7,193.3c1.6,0,3.1,0.4,4.3,1.3c-1,2-2.9,3.5-5.2,4.1c-0.7,0.2-1.5,0.3-2.2,0.3
			c-1.6,0-3.1-0.4-4.3-1.3c1-2,2.9-3.5,5.2-4.1C643.2,193.4,643.9,193.3,644.7,193.3 M644.7,191.3c-0.9,0-1.8,0.1-2.8,0.4
			c-3.6,1-6.2,3.6-7.1,6.7c1.7,1.6,4.1,2.6,6.7,2.6c0.9,0,1.8-0.1,2.8-0.4c3.6-1,6.2-3.6,7.1-6.7
			C649.7,192.2,647.3,191.3,644.7,191.3L644.7,191.3z"/>
		<path fill="#6EAA05" d="M653.6,175.6c0.4,2.1-0.1,4.5-1.5,6.4c-1.4,1.9-3.5,3.1-5.7,3.3c-0.4-2.1,0.1-4.5,1.5-6.4
			C649.3,177,651.4,175.8,653.6,175.6 M654.2,173.6c-2.9,0-5.9,1.5-7.9,4.2c-2.2,3-2.6,6.7-1.4,9.6c0.3,0,0.6,0,0.9,0
			c2.9,0,5.9-1.5,7.9-4.2c2.2-3,2.6-6.7,1.4-9.6C654.8,173.6,654.5,173.6,654.2,173.6L654.2,173.6z"/>
	</g>
</g>
</svg>
